<?xml version="1.0" encoding="utf-8" standalone="no"?>
<!DOCTYPE svg PUBLIC "-//W3C//DTD SVG 1.1//EN"
  "http://www.w3.org/Graphics/SVG/1.1/DTD/svg11.dtd">
<svg xmlns:xlink="http://www.w3.org/1999/xlink" width="432pt" height="288pt" viewBox="0 0 432 288" xmlns="http://www.w3.org/2000/svg" version="1.1">
 <metadata>
  <rdf:RDF xmlns:dc="http://purl.org/dc/elements/1.1/" xmlns:cc="http://creativecommons.org/ns#" xmlns:rdf="http://www.w3.org/1999/02/22-rdf-syntax-ns#">
   <cc:Work>
    <dc:type rdf:resource="http://purl.org/dc/dcmitype/StillImage"/>
    <dc:date>2025-01-22T01:21:54.376631</dc:date>
    <dc:format>image/svg+xml</dc:format>
    <dc:creator>
     <cc:Agent>
      <dc:title>Matplotlib v3.9.1, https://matplotlib.org/</dc:title>
     </cc:Agent>
    </dc:creator>
   </cc:Work>
  </rdf:RDF>
 </metadata>
 <defs>
  <style type="text/css">*{stroke-linejoin: round; stroke-linecap: butt}</style>
 </defs>
 <g id="figure_1">
  <g id="patch_1">
   <path d="M 0 288 
L 432 288 
L 432 0 
L 0 0 
z
" style="fill: #ffffff"/>
  </g>
  <g id="axes_1">
   <g id="patch_2">
    <path d="M 64.731 246.04 
L 296.011 246.04 
L 296.011 14.76 
L 64.731 14.76 
z
" style="fill: #ffffff"/>
   </g>
   <g id="matplotlib.axis_1">
    <g id="xtick_1">
     <g id="line2d_1">
      <defs>
       <path id="m4e9c3c00d6" d="M 0 0 
L 0 3.5 
" style="stroke: #000000; stroke-width: 0.8"/>
      </defs>
      <g>
       <use xlink:href="#m4e9c3c00d6" x="64.731" y="246.04" style="stroke: #000000; stroke-width: 0.8"/>
      </g>
     </g>
     <g id="text_1">
      <!-- −5 -->
      <g transform="translate(57.359906 260.638438) scale(0.1 -0.1)">
       <defs>
        <path id="DejaVuSans-2212" d="M 678 2272 
L 4684 2272 
L 4684 1741 
L 678 1741 
L 678 2272 
z
" transform="scale(0.015625)"/>
        <path id="DejaVuSans-35" d="M 691 4666 
L 3169 4666 
L 3169 4134 
L 1269 4134 
L 1269 2991 
Q 1406 3038 1543 3061 
Q 1681 3084 1819 3084 
Q 2600 3084 3056 2656 
Q 3513 2228 3513 1497 
Q 3513 744 3044 326 
Q 2575 -91 1722 -91 
Q 1428 -91 1123 -41 
Q 819 9 494 109 
L 494 744 
Q 775 591 1075 516 
Q 1375 441 1709 441 
Q 2250 441 2565 725 
Q 2881 1009 2881 1497 
Q 2881 1984 2565 2268 
Q 2250 2553 1709 2553 
Q 1456 2553 1204 2497 
Q 953 2441 691 2322 
L 691 4666 
z
" transform="scale(0.015625)"/>
       </defs>
       <use xlink:href="#DejaVuSans-2212"/>
       <use xlink:href="#DejaVuSans-35" x="83.789062"/>
      </g>
     </g>
    </g>
    <g id="xtick_2">
     <g id="line2d_2">
      <g>
       <use xlink:href="#m4e9c3c00d6" x="180.371" y="246.04" style="stroke: #000000; stroke-width: 0.8"/>
      </g>
     </g>
     <g id="text_2">
      <!-- 0 -->
      <g transform="translate(177.18975 260.638438) scale(0.1 -0.1)">
       <defs>
        <path id="DejaVuSans-30" d="M 2034 4250 
Q 1547 4250 1301 3770 
Q 1056 3291 1056 2328 
Q 1056 1369 1301 889 
Q 1547 409 2034 409 
Q 2525 409 2770 889 
Q 3016 1369 3016 2328 
Q 3016 3291 2770 3770 
Q 2525 4250 2034 4250 
z
M 2034 4750 
Q 2819 4750 3233 4129 
Q 3647 3509 3647 2328 
Q 3647 1150 3233 529 
Q 2819 -91 2034 -91 
Q 1250 -91 836 529 
Q 422 1150 422 2328 
Q 422 3509 836 4129 
Q 1250 4750 2034 4750 
z
" transform="scale(0.015625)"/>
       </defs>
       <use xlink:href="#DejaVuSans-30"/>
      </g>
     </g>
    </g>
    <g id="xtick_3">
     <g id="line2d_3">
      <g>
       <use xlink:href="#m4e9c3c00d6" x="296.011" y="246.04" style="stroke: #000000; stroke-width: 0.8"/>
      </g>
     </g>
     <g id="text_3">
      <!-- 5 -->
      <g transform="translate(292.82975 260.638438) scale(0.1 -0.1)">
       <use xlink:href="#DejaVuSans-35"/>
      </g>
     </g>
    </g>
    <g id="text_4">
     <!-- $x$ -->
     <g transform="translate(177.371 274.316562) scale(0.1 -0.1)">
      <defs>
       <path id="DejaVuSans-Oblique-78" d="M 3841 3500 
L 2234 1784 
L 3219 0 
L 2559 0 
L 1819 1388 
L 531 0 
L -166 0 
L 1556 1844 
L 641 3500 
L 1300 3500 
L 1972 2234 
L 3144 3500 
L 3841 3500 
z
" transform="scale(0.015625)"/>
      </defs>
      <use xlink:href="#DejaVuSans-Oblique-78" transform="translate(0 0.3125)"/>
     </g>
    </g>
   </g>
   <g id="matplotlib.axis_2">
    <g id="ytick_1">
     <g id="line2d_4">
      <defs>
       <path id="m6776fce5d9" d="M 0 0 
L -3.5 0 
" style="stroke: #000000; stroke-width: 0.8"/>
      </defs>
      <g>
       <use xlink:href="#m6776fce5d9" x="64.731" y="246.04" style="stroke: #000000; stroke-width: 0.8"/>
      </g>
     </g>
     <g id="text_5">
      <!-- −5 -->
      <g transform="translate(42.988812 249.839219) scale(0.1 -0.1)">
       <use xlink:href="#DejaVuSans-2212"/>
       <use xlink:href="#DejaVuSans-35" x="83.789062"/>
      </g>
     </g>
    </g>
    <g id="ytick_2">
     <g id="line2d_5">
      <g>
       <use xlink:href="#m6776fce5d9" x="64.731" y="130.4" style="stroke: #000000; stroke-width: 0.8"/>
      </g>
     </g>
     <g id="text_6">
      <!-- 0 -->
      <g transform="translate(51.3685 134.199219) scale(0.1 -0.1)">
       <use xlink:href="#DejaVuSans-30"/>
      </g>
     </g>
    </g>
    <g id="ytick_3">
     <g id="line2d_6">
      <g>
       <use xlink:href="#m6776fce5d9" x="64.731" y="14.76" style="stroke: #000000; stroke-width: 0.8"/>
      </g>
     </g>
     <g id="text_7">
      <!-- 5 -->
      <g transform="translate(51.3685 18.559219) scale(0.1 -0.1)">
       <use xlink:href="#DejaVuSans-35"/>
      </g>
     </g>
    </g>
    <g id="text_8">
     <!-- $y$ -->
     <g transform="translate(36.888812 133.4) rotate(-90) scale(0.1 -0.1)">
      <defs>
       <path id="DejaVuSans-Oblique-79" d="M 1588 -325 
Q 1188 -997 936 -1164 
Q 684 -1331 294 -1331 
L -159 -1331 
L -63 -850 
L 269 -850 
Q 509 -850 678 -719 
Q 847 -588 1056 -206 
L 1234 128 
L 459 3500 
L 1069 3500 
L 1650 819 
L 3256 3500 
L 3859 3500 
L 1588 -325 
z
" transform="scale(0.015625)"/>
      </defs>
      <use xlink:href="#DejaVuSans-Oblique-79" transform="translate(0 0.3125)"/>
     </g>
    </g>
   </g>
   <g id="QuadContourSet_1">
    <path d="M 296.011 246.04 
L 283.838368 241.352403 
L 271.665737 236.501213 
L 265.410357 233.867368 
L 259.493105 230.845793 
L 247.320474 224.435594 
L 242.273285 221.694737 
L 235.147842 216.865924 
L 224.311231 209.522105 
L 222.975211 208.318219 
L 210.802579 197.349474 
L 210.802579 197.349474 
L 201.747329 185.176842 
L 198.629947 176.930866 
L 197.14548 173.004211 
L 198.460883 160.831579 
L 198.629947 160.583158 
L 209.866223 148.658947 
L 210.802579 148.167124 
L 222.975211 143.521873 
L 235.147842 140.680248 
L 247.320474 139.222799 
L 259.493105 138.850784 
L 271.665737 139.345659 
L 283.838368 140.54386 
L 296.011 142.320536 
" clip-path="url(#pd6723d250e)" style="fill: none; stroke: #000000; stroke-width: 1.5"/>
    <path d="M 187.786019 246.04 
L 186.457316 245.257113 
L 174.284684 237.91683 
L 167.597745 233.867368 
L 162.112053 230.094403 
L 149.939421 221.721085 
L 149.901851 221.694737 
L 137.766789 211.914239 
L 134.798771 209.522105 
L 125.594158 200.801945 
L 121.949882 197.349474 
L 113.421526 187.550937 
L 111.355185 185.176842 
L 103.130848 173.004211 
L 101.248895 168.975241 
L 97.444947 160.831579 
L 94.519658 148.658947 
L 94.83982 136.486316 
L 99.203494 124.313684 
L 101.248895 121.509876 
L 109.423652 112.141053 
L 113.421526 109.207361 
L 125.594158 101.888266 
L 129.56717 99.968421 
L 137.766789 97.001724 
L 149.939421 93.532652 
L 162.112053 90.936217 
L 174.284684 89.098102 
L 186.457316 87.923118 
L 188.993281 87.795789 
L 198.629947 87.395651 
L 210.802579 87.327611 
L 222.975211 87.657912 
L 225.342111 87.795789 
L 235.147842 88.428417 
L 247.320474 89.585882 
L 259.493105 91.073036 
L 271.665737 92.857871 
L 283.838368 94.912391 
L 296.011 97.212004 
" clip-path="url(#pd6723d250e)" style="fill: none; stroke: #000000; stroke-width: 1.5"/>
    <path d="M 123.967123 246.04 
L 113.421526 238.962889 
L 105.828697 233.867368 
L 101.248895 230.453641 
L 89.498087 221.694737 
L 89.076263 221.341175 
L 76.903632 211.073995 
L 75.066253 209.522105 
L 64.731 199.607745 
M 64.731 72.788435 
L 76.903632 67.490352 
L 88.185583 63.450526 
L 89.076263 63.188749 
L 101.248895 60.165179 
L 113.421526 57.750966 
L 125.594158 55.886949 
L 137.766789 54.521386 
L 149.939421 53.608824 
L 162.112053 53.109176 
L 174.284684 52.986946 
L 186.457316 53.210597 
L 198.629947 53.752007 
L 210.802579 54.586024 
L 222.975211 55.690083 
L 235.147842 57.043878 
L 247.320474 58.629093 
L 259.493105 60.429157 
L 271.665737 62.429047 
L 277.283874 63.450526 
L 283.838368 64.731856 
L 296.011 67.319578 
" clip-path="url(#pd6723d250e)" style="fill: none; stroke: #000000; stroke-width: 1.5"/>
    <path d="M 73.810174 246.04 
L 64.731 239.596716 
M 64.731 32.767595 
L 76.903632 30.437931 
L 89.076263 28.577124 
L 101.248895 27.147055 
L 103.721461 26.932632 
L 113.421526 26.191815 
L 125.594158 25.584846 
L 137.766789 25.28281 
L 149.939421 25.265333 
L 162.112053 25.513817 
L 174.284684 26.011249 
L 186.457316 26.742037 
L 188.859809 26.932632 
L 198.629947 27.759503 
L 210.802579 29.014443 
L 222.975211 30.475412 
L 235.147842 32.129507 
L 247.320474 33.964878 
L 259.493105 35.970628 
L 271.665737 38.136714 
L 276.696263 39.105263 
L 283.838368 40.566487 
L 296.011 43.225039 
" clip-path="url(#pd6723d250e)" style="fill: none; stroke: #000000; stroke-width: 1.5"/>
    <path d="M 258.623632 14.76 
L 259.493105 14.918086 
L 271.665737 17.309823 
L 283.838368 19.833744 
L 296.011 22.482882 
" clip-path="url(#pd6723d250e)" style="fill: none; stroke: #000000; stroke-width: 1.5"/>
    <path clip-path="url(#pd6723d250e)" style="fill: none; stroke: #000000; stroke-width: 1.5"/>
   </g>
   <g id="line2d_7">
    <defs>
     <path id="m08c05bc258" d="M 0 3 
C 0.795609 3 1.55874 2.683901 2.12132 2.12132 
C 2.683901 1.55874 3 0.795609 3 0 
C 3 -0.795609 2.683901 -1.55874 2.12132 -2.12132 
C 1.55874 -2.683901 0.795609 -3 0 -3 
C -0.795609 -3 -1.55874 -2.683901 -2.12132 -2.12132 
C -2.683901 -1.55874 -3 -0.795609 -3 0 
C -3 0.795609 -2.683901 1.55874 -2.12132 2.12132 
C -1.55874 2.683901 -0.795609 3 0 3 
z
" style="stroke: #ff7f0e"/>
    </defs>
    <g clip-path="url(#pd6723d250e)">
     <use xlink:href="#m08c05bc258" x="76.903632" y="246.04" style="fill: #ff7f0e; stroke: #ff7f0e"/>
     <use xlink:href="#m08c05bc258" x="89.076263" y="136.486316" style="fill: #ff7f0e; stroke: #ff7f0e"/>
     <use xlink:href="#m08c05bc258" x="149.939421" y="233.867368" style="fill: #ff7f0e; stroke: #ff7f0e"/>
     <use xlink:href="#m08c05bc258" x="283.838368" y="14.76" style="fill: #ff7f0e; stroke: #ff7f0e"/>
     <use xlink:href="#m08c05bc258" x="283.838368" y="63.450526" style="fill: #ff7f0e; stroke: #ff7f0e"/>
     <use xlink:href="#m08c05bc258" x="162.112053" y="209.522105" style="fill: #ff7f0e; stroke: #ff7f0e"/>
     <use xlink:href="#m08c05bc258" x="296.011" y="160.831579" style="fill: #ff7f0e; stroke: #ff7f0e"/>
     <use xlink:href="#m08c05bc258" x="162.112053" y="14.76" style="fill: #ff7f0e; stroke: #ff7f0e"/>
     <use xlink:href="#m08c05bc258" x="162.112053" y="197.349474" style="fill: #ff7f0e; stroke: #ff7f0e"/>
     <use xlink:href="#m08c05bc258" x="222.975211" y="209.522105" style="fill: #ff7f0e; stroke: #ff7f0e"/>
     <use xlink:href="#m08c05bc258" x="247.320474" y="221.694737" style="fill: #ff7f0e; stroke: #ff7f0e"/>
     <use xlink:href="#m08c05bc258" x="64.731" y="14.76" style="fill: #ff7f0e; stroke: #ff7f0e"/>
     <use xlink:href="#m08c05bc258" x="149.939421" y="148.658947" style="fill: #ff7f0e; stroke: #ff7f0e"/>
     <use xlink:href="#m08c05bc258" x="283.838368" y="160.831579" style="fill: #ff7f0e; stroke: #ff7f0e"/>
     <use xlink:href="#m08c05bc258" x="271.665737" y="197.349474" style="fill: #ff7f0e; stroke: #ff7f0e"/>
     <use xlink:href="#m08c05bc258" x="76.903632" y="136.486316" style="fill: #ff7f0e; stroke: #ff7f0e"/>
     <use xlink:href="#m08c05bc258" x="113.421526" y="39.105263" style="fill: #ff7f0e; stroke: #ff7f0e"/>
     <use xlink:href="#m08c05bc258" x="271.665737" y="185.176842" style="fill: #ff7f0e; stroke: #ff7f0e"/>
     <use xlink:href="#m08c05bc258" x="235.147842" y="51.277895" style="fill: #ff7f0e; stroke: #ff7f0e"/>
     <use xlink:href="#m08c05bc258" x="101.248895" y="136.486316" style="fill: #ff7f0e; stroke: #ff7f0e"/>
    </g>
   </g>
   <g id="QuadContourSet_2">
    <path d="M 293.534681 246.04 
L 283.838368 242.82468 
L 271.665737 237.819227 
L 263.591984 233.867368 
L 259.493105 231.592498 
L 247.320474 223.912323 
L 244.170729 221.694737 
L 235.147842 214.47654 
L 229.330749 209.522105 
L 222.975211 203.258728 
L 217.197234 197.349474 
L 210.802579 189.614731 
L 207.189375 185.176842 
L 199.257946 173.004211 
L 198.629947 171.391329 
L 194.495413 160.831579 
L 194.284077 148.658947 
L 198.629947 142.000154 
L 204.568457 136.486316 
L 210.802579 134.023385 
L 222.975211 131.434092 
L 235.147842 130.634956 
L 247.320474 131.130758 
L 259.493105 132.587494 
L 271.665737 134.775425 
L 279.058696 136.486316 
L 283.838368 137.86757 
L 296.011 141.982117 
" clip-path="url(#pd6723d250e)" style="fill: none; stroke-dasharray: 5.55,2.4; stroke-dashoffset: 0; stroke: #1f77b4; stroke-width: 1.5"/>
    <path d="M 186.183382 246.04 
L 174.284684 234.398665 
L 173.76479 233.867368 
L 162.112053 222.117846 
L 161.700472 221.694737 
L 149.939421 209.649451 
L 149.814729 209.522105 
L 138.02759 197.349474 
L 137.766789 197.068273 
L 126.39418 185.176842 
L 125.594158 184.272037 
L 115.199144 173.004211 
L 113.421526 170.786245 
L 105.038235 160.831579 
L 101.248895 155.038501 
L 96.851365 148.658947 
L 91.89966 136.486316 
L 91.612341 124.313684 
L 97.664064 112.141053 
L 101.248895 108.922645 
L 112.654894 99.968421 
L 113.421526 99.58886 
L 125.594158 94.319778 
L 137.766789 90.083524 
L 146.201875 87.795789 
L 149.939421 87.036455 
L 162.112053 85.171073 
L 174.284684 83.939336 
L 186.457316 83.288199 
L 198.629947 83.16086 
L 210.802579 83.499606 
L 222.975211 84.248058 
L 235.147842 85.3528 
L 247.320474 86.764486 
L 254.770317 87.795789 
L 259.493105 88.551835 
L 271.665737 90.763899 
L 283.838368 93.168436 
L 296.011 95.730561 
" clip-path="url(#pd6723d250e)" style="fill: none; stroke-dasharray: 5.55,2.4; stroke-dashoffset: 0; stroke: #1f77b4; stroke-width: 1.5"/>
    <path d="M 122.280861 246.04 
L 113.421526 236.117792 
L 111.410261 233.867368 
L 101.248895 223.512293 
L 99.421469 221.694737 
L 89.076263 212.069324 
L 86.211864 209.522105 
L 76.903632 201.523587 
L 71.730644 197.349474 
L 64.731 191.666555 
M 64.731 71.229645 
L 76.903632 67.302786 
L 89.076263 63.824005 
L 90.545002 63.450526 
L 101.248895 61.12022 
L 113.421526 58.910492 
L 125.594158 57.159166 
L 137.766789 55.860815 
L 149.939421 55.000743 
L 162.112053 54.556643 
L 174.284684 54.50033 
L 186.457316 54.799442 
L 198.629947 55.418996 
L 210.802579 56.322749 
L 222.975211 57.474336 
L 235.147842 58.838155 
L 247.320474 60.380028 
L 259.493105 62.067646 
L 268.817641 63.450526 
L 271.665737 63.90374 
L 283.838368 65.934091 
L 296.011 68.017389 
" clip-path="url(#pd6723d250e)" style="fill: none; stroke-dasharray: 5.55,2.4; stroke-dashoffset: 0; stroke: #1f77b4; stroke-width: 1.5"/>
    <path d="M 64.731 34.640523 
L 76.903632 32.726836 
L 89.076263 31.130401 
L 101.248895 29.868887 
L 113.421526 28.950398 
L 125.594158 28.374531 
L 137.766789 28.133518 
L 149.939421 28.213402 
L 162.112053 28.595197 
L 174.284684 29.255984 
L 186.457316 30.169914 
L 198.629947 31.309095 
L 210.802579 32.644346 
L 222.975211 34.145813 
L 235.147842 35.783453 
L 247.320474 37.527386 
L 257.86502 39.105263 
L 259.493105 39.34344 
L 271.665737 41.170352 
L 283.838368 43.00595 
L 296.011 44.822678 
" clip-path="url(#pd6723d250e)" style="fill: none; stroke-dasharray: 5.55,2.4; stroke-dashoffset: 0; stroke: #1f77b4; stroke-width: 1.5"/>
    <path d="M 253.978763 14.76 
L 259.493105 15.671148 
L 271.665737 17.648601 
L 283.838368 19.559415 
L 296.011 21.369952 
" clip-path="url(#pd6723d250e)" style="fill: none; stroke-dasharray: 5.55,2.4; stroke-dashoffset: 0; stroke: #1f77b4; stroke-width: 1.5"/>
    <path clip-path="url(#pd6723d250e)" style="fill: none; stroke-dasharray: 5.55,2.4; stroke-dashoffset: 0; stroke: #1f77b4; stroke-width: 1.5"/>
   </g>
   <g id="patch_3">
    <path d="M 64.731 246.04 
L 64.731 14.76 
" style="fill: none; stroke: #000000; stroke-width: 0.8; stroke-linejoin: miter; stroke-linecap: square"/>
   </g>
   <g id="patch_4">
    <path d="M 296.011 246.04 
L 296.011 14.76 
" style="fill: none; stroke: #000000; stroke-width: 0.8; stroke-linejoin: miter; stroke-linecap: square"/>
   </g>
   <g id="patch_5">
    <path d="M 64.731 246.04 
L 296.011 246.04 
" style="fill: none; stroke: #000000; stroke-width: 0.8; stroke-linejoin: miter; stroke-linecap: square"/>
   </g>
   <g id="patch_6">
    <path d="M 64.731 14.76 
L 296.011 14.76 
" style="fill: none; stroke: #000000; stroke-width: 0.8; stroke-linejoin: miter; stroke-linecap: square"/>
   </g>
   <g id="legend_1">
    <g id="patch_7">
     <path d="M 314.575 66.81625 
L 422.3 66.81625 
Q 424.3 66.81625 424.3 64.81625 
L 424.3 21.76 
Q 424.3 19.76 422.3 19.76 
L 314.575 19.76 
Q 312.575 19.76 312.575 21.76 
L 312.575 64.81625 
Q 312.575 66.81625 314.575 66.81625 
z
" style="fill: #ffffff; opacity: 0.8; stroke: #cccccc; stroke-linejoin: miter"/>
    </g>
    <g id="line2d_8">
     <path d="M 316.575 27.86 
L 326.575 27.86 
L 336.575 27.86 
" style="fill: none; stroke: #000000; stroke-width: 1.5; stroke-linecap: square"/>
    </g>
    <g id="text_9">
     <!-- True $z(x,y)$ -->
     <g transform="translate(344.575 31.36) scale(0.1 -0.1)">
      <defs>
       <path id="DejaVuSans-54" d="M -19 4666 
L 3928 4666 
L 3928 4134 
L 2272 4134 
L 2272 0 
L 1638 0 
L 1638 4134 
L -19 4134 
L -19 4666 
z
" transform="scale(0.015625)"/>
       <path id="DejaVuSans-72" d="M 2631 2963 
Q 2534 3019 2420 3045 
Q 2306 3072 2169 3072 
Q 1681 3072 1420 2755 
Q 1159 2438 1159 1844 
L 1159 0 
L 581 0 
L 581 3500 
L 1159 3500 
L 1159 2956 
Q 1341 3275 1631 3429 
Q 1922 3584 2338 3584 
Q 2397 3584 2469 3576 
Q 2541 3569 2628 3553 
L 2631 2963 
z
" transform="scale(0.015625)"/>
       <path id="DejaVuSans-75" d="M 544 1381 
L 544 3500 
L 1119 3500 
L 1119 1403 
Q 1119 906 1312 657 
Q 1506 409 1894 409 
Q 2359 409 2629 706 
Q 2900 1003 2900 1516 
L 2900 3500 
L 3475 3500 
L 3475 0 
L 2900 0 
L 2900 538 
Q 2691 219 2414 64 
Q 2138 -91 1772 -91 
Q 1169 -91 856 284 
Q 544 659 544 1381 
z
M 1991 3584 
L 1991 3584 
z
" transform="scale(0.015625)"/>
       <path id="DejaVuSans-65" d="M 3597 1894 
L 3597 1613 
L 953 1613 
Q 991 1019 1311 708 
Q 1631 397 2203 397 
Q 2534 397 2845 478 
Q 3156 559 3463 722 
L 3463 178 
Q 3153 47 2828 -22 
Q 2503 -91 2169 -91 
Q 1331 -91 842 396 
Q 353 884 353 1716 
Q 353 2575 817 3079 
Q 1281 3584 2069 3584 
Q 2775 3584 3186 3129 
Q 3597 2675 3597 1894 
z
M 3022 2063 
Q 3016 2534 2758 2815 
Q 2500 3097 2075 3097 
Q 1594 3097 1305 2825 
Q 1016 2553 972 2059 
L 3022 2063 
z
" transform="scale(0.015625)"/>
       <path id="DejaVuSans-20" transform="scale(0.015625)"/>
       <path id="DejaVuSans-Oblique-7a" d="M 744 3500 
L 3475 3500 
L 3372 2975 
L 738 459 
L 2913 459 
L 2822 0 
L -19 0 
L 84 525 
L 2719 3041 
L 653 3041 
L 744 3500 
z
" transform="scale(0.015625)"/>
       <path id="DejaVuSans-28" d="M 1984 4856 
Q 1566 4138 1362 3434 
Q 1159 2731 1159 2009 
Q 1159 1288 1364 580 
Q 1569 -128 1984 -844 
L 1484 -844 
Q 1016 -109 783 600 
Q 550 1309 550 2009 
Q 550 2706 781 3412 
Q 1013 4119 1484 4856 
L 1984 4856 
z
" transform="scale(0.015625)"/>
       <path id="DejaVuSans-2c" d="M 750 794 
L 1409 794 
L 1409 256 
L 897 -744 
L 494 -744 
L 750 256 
L 750 794 
z
" transform="scale(0.015625)"/>
       <path id="DejaVuSans-29" d="M 513 4856 
L 1013 4856 
Q 1481 4119 1714 3412 
Q 1947 2706 1947 2009 
Q 1947 1309 1714 600 
Q 1481 -109 1013 -844 
L 513 -844 
Q 928 -128 1133 580 
Q 1338 1288 1338 2009 
Q 1338 2731 1133 3434 
Q 928 4138 513 4856 
z
" transform="scale(0.015625)"/>
      </defs>
      <use xlink:href="#DejaVuSans-54" transform="translate(0 0.125)"/>
      <use xlink:href="#DejaVuSans-72" transform="translate(61.083984 0.125)"/>
      <use xlink:href="#DejaVuSans-75" transform="translate(102.197266 0.125)"/>
      <use xlink:href="#DejaVuSans-65" transform="translate(165.576172 0.125)"/>
      <use xlink:href="#DejaVuSans-20" transform="translate(227.099609 0.125)"/>
      <use xlink:href="#DejaVuSans-Oblique-7a" transform="translate(258.886719 0.125)"/>
      <use xlink:href="#DejaVuSans-28" transform="translate(311.376953 0.125)"/>
      <use xlink:href="#DejaVuSans-Oblique-78" transform="translate(350.390625 0.125)"/>
      <use xlink:href="#DejaVuSans-2c" transform="translate(409.570312 0.125)"/>
      <use xlink:href="#DejaVuSans-Oblique-79" transform="translate(460.839844 0.125)"/>
      <use xlink:href="#DejaVuSans-29" transform="translate(520.019531 0.125)"/>
     </g>
    </g>
    <g id="line2d_9">
     <g>
      <use xlink:href="#m08c05bc258" x="326.575" y="42.558438" style="fill: #ff7f0e; stroke: #ff7f0e"/>
     </g>
    </g>
    <g id="text_10">
     <!-- Train samples -->
     <g transform="translate(344.575 46.058438) scale(0.1 -0.1)">
      <defs>
       <path id="DejaVuSans-61" d="M 2194 1759 
Q 1497 1759 1228 1600 
Q 959 1441 959 1056 
Q 959 750 1161 570 
Q 1363 391 1709 391 
Q 2188 391 2477 730 
Q 2766 1069 2766 1631 
L 2766 1759 
L 2194 1759 
z
M 3341 1997 
L 3341 0 
L 2766 0 
L 2766 531 
Q 2569 213 2275 61 
Q 1981 -91 1556 -91 
Q 1019 -91 701 211 
Q 384 513 384 1019 
Q 384 1609 779 1909 
Q 1175 2209 1959 2209 
L 2766 2209 
L 2766 2266 
Q 2766 2663 2505 2880 
Q 2244 3097 1772 3097 
Q 1472 3097 1187 3025 
Q 903 2953 641 2809 
L 641 3341 
Q 956 3463 1253 3523 
Q 1550 3584 1831 3584 
Q 2591 3584 2966 3190 
Q 3341 2797 3341 1997 
z
" transform="scale(0.015625)"/>
       <path id="DejaVuSans-69" d="M 603 3500 
L 1178 3500 
L 1178 0 
L 603 0 
L 603 3500 
z
M 603 4863 
L 1178 4863 
L 1178 4134 
L 603 4134 
L 603 4863 
z
" transform="scale(0.015625)"/>
       <path id="DejaVuSans-6e" d="M 3513 2113 
L 3513 0 
L 2938 0 
L 2938 2094 
Q 2938 2591 2744 2837 
Q 2550 3084 2163 3084 
Q 1697 3084 1428 2787 
Q 1159 2491 1159 1978 
L 1159 0 
L 581 0 
L 581 3500 
L 1159 3500 
L 1159 2956 
Q 1366 3272 1645 3428 
Q 1925 3584 2291 3584 
Q 2894 3584 3203 3211 
Q 3513 2838 3513 2113 
z
" transform="scale(0.015625)"/>
       <path id="DejaVuSans-73" d="M 2834 3397 
L 2834 2853 
Q 2591 2978 2328 3040 
Q 2066 3103 1784 3103 
Q 1356 3103 1142 2972 
Q 928 2841 928 2578 
Q 928 2378 1081 2264 
Q 1234 2150 1697 2047 
L 1894 2003 
Q 2506 1872 2764 1633 
Q 3022 1394 3022 966 
Q 3022 478 2636 193 
Q 2250 -91 1575 -91 
Q 1294 -91 989 -36 
Q 684 19 347 128 
L 347 722 
Q 666 556 975 473 
Q 1284 391 1588 391 
Q 1994 391 2212 530 
Q 2431 669 2431 922 
Q 2431 1156 2273 1281 
Q 2116 1406 1581 1522 
L 1381 1569 
Q 847 1681 609 1914 
Q 372 2147 372 2553 
Q 372 3047 722 3315 
Q 1072 3584 1716 3584 
Q 2034 3584 2315 3537 
Q 2597 3491 2834 3397 
z
" transform="scale(0.015625)"/>
       <path id="DejaVuSans-6d" d="M 3328 2828 
Q 3544 3216 3844 3400 
Q 4144 3584 4550 3584 
Q 5097 3584 5394 3201 
Q 5691 2819 5691 2113 
L 5691 0 
L 5113 0 
L 5113 2094 
Q 5113 2597 4934 2840 
Q 4756 3084 4391 3084 
Q 3944 3084 3684 2787 
Q 3425 2491 3425 1978 
L 3425 0 
L 2847 0 
L 2847 2094 
Q 2847 2600 2669 2842 
Q 2491 3084 2119 3084 
Q 1678 3084 1418 2786 
Q 1159 2488 1159 1978 
L 1159 0 
L 581 0 
L 581 3500 
L 1159 3500 
L 1159 2956 
Q 1356 3278 1631 3431 
Q 1906 3584 2284 3584 
Q 2666 3584 2933 3390 
Q 3200 3197 3328 2828 
z
" transform="scale(0.015625)"/>
       <path id="DejaVuSans-70" d="M 1159 525 
L 1159 -1331 
L 581 -1331 
L 581 3500 
L 1159 3500 
L 1159 2969 
Q 1341 3281 1617 3432 
Q 1894 3584 2278 3584 
Q 2916 3584 3314 3078 
Q 3713 2572 3713 1747 
Q 3713 922 3314 415 
Q 2916 -91 2278 -91 
Q 1894 -91 1617 61 
Q 1341 213 1159 525 
z
M 3116 1747 
Q 3116 2381 2855 2742 
Q 2594 3103 2138 3103 
Q 1681 3103 1420 2742 
Q 1159 2381 1159 1747 
Q 1159 1113 1420 752 
Q 1681 391 2138 391 
Q 2594 391 2855 752 
Q 3116 1113 3116 1747 
z
" transform="scale(0.015625)"/>
       <path id="DejaVuSans-6c" d="M 603 4863 
L 1178 4863 
L 1178 0 
L 603 0 
L 603 4863 
z
" transform="scale(0.015625)"/>
      </defs>
      <use xlink:href="#DejaVuSans-54"/>
      <use xlink:href="#DejaVuSans-72" x="46.333984"/>
      <use xlink:href="#DejaVuSans-61" x="87.447266"/>
      <use xlink:href="#DejaVuSans-69" x="148.726562"/>
      <use xlink:href="#DejaVuSans-6e" x="176.509766"/>
      <use xlink:href="#DejaVuSans-20" x="239.888672"/>
      <use xlink:href="#DejaVuSans-73" x="271.675781"/>
      <use xlink:href="#DejaVuSans-61" x="323.775391"/>
      <use xlink:href="#DejaVuSans-6d" x="385.054688"/>
      <use xlink:href="#DejaVuSans-70" x="482.466797"/>
      <use xlink:href="#DejaVuSans-6c" x="545.943359"/>
      <use xlink:href="#DejaVuSans-65" x="573.726562"/>
      <use xlink:href="#DejaVuSans-73" x="635.25"/>
     </g>
    </g>
    <g id="line2d_10">
     <path d="M 316.575 57.236563 
L 326.575 57.236563 
L 336.575 57.236563 
" style="fill: none; stroke-dasharray: 5.55,2.4; stroke-dashoffset: 0; stroke: #1f77b4; stroke-width: 1.5"/>
    </g>
    <g id="text_11">
     <!-- Posterior mean -->
     <g transform="translate(344.575 60.736563) scale(0.1 -0.1)">
      <defs>
       <path id="DejaVuSans-50" d="M 1259 4147 
L 1259 2394 
L 2053 2394 
Q 2494 2394 2734 2622 
Q 2975 2850 2975 3272 
Q 2975 3691 2734 3919 
Q 2494 4147 2053 4147 
L 1259 4147 
z
M 628 4666 
L 2053 4666 
Q 2838 4666 3239 4311 
Q 3641 3956 3641 3272 
Q 3641 2581 3239 2228 
Q 2838 1875 2053 1875 
L 1259 1875 
L 1259 0 
L 628 0 
L 628 4666 
z
" transform="scale(0.015625)"/>
       <path id="DejaVuSans-6f" d="M 1959 3097 
Q 1497 3097 1228 2736 
Q 959 2375 959 1747 
Q 959 1119 1226 758 
Q 1494 397 1959 397 
Q 2419 397 2687 759 
Q 2956 1122 2956 1747 
Q 2956 2369 2687 2733 
Q 2419 3097 1959 3097 
z
M 1959 3584 
Q 2709 3584 3137 3096 
Q 3566 2609 3566 1747 
Q 3566 888 3137 398 
Q 2709 -91 1959 -91 
Q 1206 -91 779 398 
Q 353 888 353 1747 
Q 353 2609 779 3096 
Q 1206 3584 1959 3584 
z
" transform="scale(0.015625)"/>
       <path id="DejaVuSans-74" d="M 1172 4494 
L 1172 3500 
L 2356 3500 
L 2356 3053 
L 1172 3053 
L 1172 1153 
Q 1172 725 1289 603 
Q 1406 481 1766 481 
L 2356 481 
L 2356 0 
L 1766 0 
Q 1100 0 847 248 
Q 594 497 594 1153 
L 594 3053 
L 172 3053 
L 172 3500 
L 594 3500 
L 594 4494 
L 1172 4494 
z
" transform="scale(0.015625)"/>
      </defs>
      <use xlink:href="#DejaVuSans-50"/>
      <use xlink:href="#DejaVuSans-6f" x="56.677734"/>
      <use xlink:href="#DejaVuSans-73" x="117.859375"/>
      <use xlink:href="#DejaVuSans-74" x="169.958984"/>
      <use xlink:href="#DejaVuSans-65" x="209.167969"/>
      <use xlink:href="#DejaVuSans-72" x="270.691406"/>
      <use xlink:href="#DejaVuSans-69" x="311.804688"/>
      <use xlink:href="#DejaVuSans-6f" x="339.587891"/>
      <use xlink:href="#DejaVuSans-72" x="400.769531"/>
      <use xlink:href="#DejaVuSans-20" x="441.882812"/>
      <use xlink:href="#DejaVuSans-6d" x="473.669922"/>
      <use xlink:href="#DejaVuSans-65" x="571.082031"/>
      <use xlink:href="#DejaVuSans-61" x="632.605469"/>
      <use xlink:href="#DejaVuSans-6e" x="693.884766"/>
     </g>
    </g>
   </g>
  </g>
 </g>
 <defs>
  <clipPath id="pd6723d250e">
   <rect x="64.731" y="14.76" width="231.28" height="231.28"/>
  </clipPath>
 </defs>
</svg>
