<?xml version="1.0" encoding="utf-8" standalone="no"?>
<!DOCTYPE svg PUBLIC "-//W3C//DTD SVG 1.1//EN"
  "http://www.w3.org/Graphics/SVG/1.1/DTD/svg11.dtd">
<svg xmlns:xlink="http://www.w3.org/1999/xlink" width="432pt" height="288pt" viewBox="0 0 432 288" xmlns="http://www.w3.org/2000/svg" version="1.1">
 <metadata>
  <rdf:RDF xmlns:dc="http://purl.org/dc/elements/1.1/" xmlns:cc="http://creativecommons.org/ns#" xmlns:rdf="http://www.w3.org/1999/02/22-rdf-syntax-ns#">
   <cc:Work>
    <dc:type rdf:resource="http://purl.org/dc/dcmitype/StillImage"/>
    <dc:date>2025-01-22T01:38:24.141053</dc:date>
    <dc:format>image/svg+xml</dc:format>
    <dc:creator>
     <cc:Agent>
      <dc:title>Matplotlib v3.9.1, https://matplotlib.org/</dc:title>
     </cc:Agent>
    </dc:creator>
   </cc:Work>
  </rdf:RDF>
 </metadata>
 <defs>
  <style type="text/css">*{stroke-linejoin: round; stroke-linecap: butt}</style>
 </defs>
 <g id="figure_1">
  <g id="patch_1">
   <path d="M 0 288 
L 432 288 
L 432 0 
L 0 0 
z
" style="fill: #ffffff"/>
  </g>
  <g id="axes_1">
   <g id="patch_2">
    <path d="M 107.84 246.04 
L 339.12 246.04 
L 339.12 14.76 
L 107.84 14.76 
z
" style="fill: #ffffff"/>
   </g>
   <g id="PathCollection_1"/>
   <g id="PathCollection_2">
    <defs>
     <path id="maf60595e93" d="M 156.530526 -88.435159 
L 168.703158 -86.827712 
L 180.875789 -86.146289 
L 193.048421 -86.060212 
L 205.221053 -86.482618 
L 217.393684 -87.443977 
L 229.566316 -89.002044 
L 238.841152 -90.650526 
L 241.738947 -92.140766 
L 253.911579 -102.333031 
L 254.30249 -102.823158 
L 254.806426 -114.995789 
L 254.38723 -127.168421 
L 253.911579 -132.070759 
L 252.672975 -139.341053 
L 241.738947 -150.681087 
L 229.566316 -149.570429 
L 217.393684 -145.671817 
L 205.221053 -140.882714 
L 201.877902 -139.341053 
L 193.048421 -135.006607 
L 180.875789 -129.897721 
L 173.051713 -127.168421 
L 168.703158 -125.204413 
L 156.530526 -120.420762 
L 144.357895 -116.406711 
L 140.388529 -114.995789 
L 132.185263 -104.352594 
L 131.249935 -102.823158 
L 132.185263 -101.730122 
L 144.357895 -92.403823 
L 148.056444 -90.650526 
z
M 217.393684 -221.738586 
L 229.566316 -220.992895 
L 236.599621 -224.549474 
L 241.738947 -227.959742 
L 250.682499 -236.722105 
L 253.911579 -242.757687 
L 259.433108 -248.894737 
L 253.911579 -250.508036 
L 241.738947 -251.870132 
L 229.566316 -251.38511 
L 217.393684 -249.393169 
L 215.818123 -248.894737 
L 205.221053 -239.282354 
L 203.255171 -236.722105 
L 205.221053 -231.968482 
L 211.957106 -224.549474 
z
" style="stroke: #463480"/>
    </defs>
    <g clip-path="url(#p2fa23f9b15)">
     <use xlink:href="#maf60595e93" x="0" y="288" style="fill: #463480; stroke: #463480"/>
    </g>
   </g>
   <g id="PathCollection_3">
    <defs>
     <path id="m15c40deee7" d="M 120.012632 -57.375674 
L 132.185263 -57.777658 
L 144.357895 -59.570044 
L 156.530526 -61.553472 
L 168.703158 -63.302642 
L 180.875789 -64.721847 
L 193.048421 -65.854508 
L 198.64133 -66.305263 
L 205.221053 -66.984817 
L 217.393684 -68.173649 
L 229.566316 -69.373007 
L 241.738947 -70.659737 
L 253.911579 -72.055397 
L 266.084211 -73.533242 
L 278.256842 -75.044082 
L 290.429474 -76.555203 
L 302.602105 -78.086403 
L 305.447386 -78.477895 
L 314.774737 -81.487105 
L 326.947368 -86.217545 
L 335.875459 -90.650526 
L 326.947368 -99.689702 
L 323.959914 -102.823158 
L 314.774737 -107.64402 
L 304.429484 -114.995789 
L 302.602105 -117.203636 
L 295.910771 -127.168421 
L 295.688325 -139.341053 
L 302.461044 -151.513684 
L 302.602105 -151.658903 
L 314.774737 -163.650462 
L 314.811048 -163.686316 
L 325.980641 -175.858947 
L 326.947368 -180.277248 
L 328.486237 -188.031579 
L 326.947368 -191.100888 
L 320.476751 -200.204211 
L 314.774737 -207.050137 
L 308.930441 -212.376842 
L 309.86714 -224.549474 
L 314.774737 -227.20787 
L 326.947368 -233.270414 
L 333.714273 -236.722105 
L 339.12 -238.721471 
L 339.12 -248.894737 
L 339.12 -261.067368 
L 339.12 -273.24 
L 326.947368 -273.24 
L 314.774737 -273.24 
L 302.602105 -273.24 
L 290.429474 -273.24 
L 278.256842 -273.24 
L 266.084211 -273.24 
L 258.055171 -273.24 
L 253.911579 -272.594903 
L 241.738947 -270.675511 
L 229.566316 -268.65551 
L 217.393684 -266.288132 
L 205.221053 -263.326212 
L 198.013361 -261.067368 
L 193.048421 -258.62112 
L 180.875789 -251.17841 
L 177.820738 -248.894737 
L 171.579517 -236.722105 
L 173.625011 -224.549474 
L 180.875789 -212.594764 
L 181.04285 -212.376842 
L 191.637757 -200.204211 
L 193.048421 -197.769426 
L 199.891995 -188.031579 
L 200.207562 -175.858947 
L 193.048421 -166.373562 
L 191.145135 -163.686316 
L 180.875789 -155.988227 
L 174.638297 -151.513684 
L 168.703158 -148.181391 
L 156.530526 -142.115409 
L 150.195711 -139.341053 
L 144.357895 -136.93975 
L 132.185263 -132.39708 
L 120.012632 -128.163772 
L 117.348311 -127.168421 
L 107.84 -122.106311 
L 107.84 -114.995789 
L 107.84 -102.823158 
L 107.84 -90.650526 
L 107.84 -78.477895 
L 107.84 -66.305263 
L 107.84 -61.439384 
z
M 148.056444 -90.650526 
L 144.357895 -92.403823 
L 132.185263 -101.730122 
L 131.249935 -102.823158 
L 132.185263 -104.352594 
L 140.388529 -114.995789 
L 144.357895 -116.406711 
L 156.530526 -120.420762 
L 168.703158 -125.204413 
L 173.051713 -127.168421 
L 180.875789 -129.897721 
L 193.048421 -135.006607 
L 201.877902 -139.341053 
L 205.221053 -140.882714 
L 217.393684 -145.671817 
L 229.566316 -149.570429 
L 241.738947 -150.681087 
L 252.672975 -139.341053 
L 253.911579 -132.070759 
L 254.38723 -127.168421 
L 254.806426 -114.995789 
L 254.30249 -102.823158 
L 253.911579 -102.333031 
L 241.738947 -92.140766 
L 238.841152 -90.650526 
L 229.566316 -89.002044 
L 217.393684 -87.443977 
L 205.221053 -86.482618 
L 193.048421 -86.060212 
L 180.875789 -86.146289 
L 168.703158 -86.827712 
L 156.530526 -88.435159 
z
M 211.957106 -224.549474 
L 205.221053 -231.968482 
L 203.255171 -236.722105 
L 205.221053 -239.282354 
L 215.818123 -248.894737 
L 217.393684 -249.393169 
L 229.566316 -251.38511 
L 241.738947 -251.870132 
L 253.911579 -250.508036 
L 259.433108 -248.894737 
L 253.911579 -242.757687 
L 250.682499 -236.722105 
L 241.738947 -227.959742 
L 236.599621 -224.549474 
L 229.566316 -220.992895 
L 217.393684 -221.738586 
z
" style="stroke: #3b528b"/>
    </defs>
    <g clip-path="url(#p2fa23f9b15)">
     <use xlink:href="#m15c40deee7" x="0" y="288" style="fill: #3b528b; stroke: #3b528b"/>
    </g>
   </g>
   <g id="PathCollection_4">
    <defs>
     <path id="m198b835b1f" d="M 120.012632 -41.96 
L 132.185263 -41.96 
L 135.7219 -41.96 
L 144.357895 -43.725528 
L 156.530526 -46.478358 
L 168.703158 -49.10309 
L 180.875789 -51.419652 
L 193.048421 -53.375935 
L 198.558927 -54.132632 
L 205.221053 -55.128197 
L 217.393684 -56.649565 
L 229.566316 -57.970092 
L 241.738947 -59.208649 
L 253.911579 -60.440568 
L 266.084211 -61.702886 
L 278.256842 -63.006154 
L 290.429474 -64.352658 
L 302.602105 -65.757249 
L 307.015183 -66.305263 
L 314.774737 -67.541821 
L 326.947368 -69.658082 
L 339.12 -72.096907 
L 339.12 -78.477895 
L 339.12 -90.650526 
L 339.12 -102.823158 
L 339.12 -114.995789 
L 339.12 -118.102556 
L 328.067504 -127.168421 
L 326.947368 -131.733644 
L 325.229408 -139.341053 
L 326.947368 -142.399196 
L 331.783333 -151.513684 
L 339.12 -159.008177 
L 339.12 -163.686316 
L 339.12 -175.858947 
L 339.12 -188.031579 
L 339.12 -200.204211 
L 339.12 -212.376842 
L 339.12 -224.549474 
L 339.12 -236.722105 
L 339.12 -238.721471 
L 333.714273 -236.722105 
L 326.947368 -233.270414 
L 314.774737 -227.20787 
L 309.86714 -224.549474 
L 308.930441 -212.376842 
L 314.774737 -207.050137 
L 320.476751 -200.204211 
L 326.947368 -191.100888 
L 328.486237 -188.031579 
L 326.947368 -180.277248 
L 325.980641 -175.858947 
L 314.811048 -163.686316 
L 314.774737 -163.650462 
L 302.602105 -151.658903 
L 302.461044 -151.513684 
L 295.688325 -139.341053 
L 295.910771 -127.168421 
L 302.602105 -117.203636 
L 304.429484 -114.995789 
L 314.774737 -107.64402 
L 323.959914 -102.823158 
L 326.947368 -99.689702 
L 335.875459 -90.650526 
L 326.947368 -86.217545 
L 314.774737 -81.487105 
L 305.447386 -78.477895 
L 302.602105 -78.086403 
L 290.429474 -76.555203 
L 278.256842 -75.044082 
L 266.084211 -73.533242 
L 253.911579 -72.055397 
L 241.738947 -70.659737 
L 229.566316 -69.373007 
L 217.393684 -68.173649 
L 205.221053 -66.984817 
L 198.64133 -66.305263 
L 193.048421 -65.854508 
L 180.875789 -64.721847 
L 168.703158 -63.302642 
L 156.530526 -61.553472 
L 144.357895 -59.570044 
L 132.185263 -57.777658 
L 120.012632 -57.375674 
L 107.84 -61.439384 
L 107.84 -54.132632 
L 107.84 -41.96 
z
M 117.348311 -127.168421 
L 120.012632 -128.163772 
L 132.185263 -132.39708 
L 144.357895 -136.93975 
L 150.195711 -139.341053 
L 156.530526 -142.115409 
L 168.703158 -148.181391 
L 174.638297 -151.513684 
L 180.875789 -155.988227 
L 191.145135 -163.686316 
L 193.048421 -166.373562 
L 200.207562 -175.858947 
L 199.891995 -188.031579 
L 193.048421 -197.769426 
L 191.637757 -200.204211 
L 181.04285 -212.376842 
L 180.875789 -212.594764 
L 173.625011 -224.549474 
L 171.579517 -236.722105 
L 177.820738 -248.894737 
L 180.875789 -251.17841 
L 193.048421 -258.62112 
L 198.013361 -261.067368 
L 205.221053 -263.326212 
L 217.393684 -266.288132 
L 229.566316 -268.65551 
L 241.738947 -270.675511 
L 253.911579 -272.594903 
L 258.055171 -273.24 
L 253.911579 -273.24 
L 241.738947 -273.24 
L 229.566316 -273.24 
L 217.393684 -273.24 
L 205.221053 -273.24 
L 200.168591 -273.24 
L 193.048421 -271.030249 
L 180.875789 -266.457911 
L 169.380859 -261.067368 
L 168.703158 -260.567843 
L 156.530526 -249.965871 
L 155.461759 -248.894737 
L 150.68406 -236.722105 
L 152.027741 -224.549474 
L 156.530526 -214.366377 
L 157.509535 -212.376842 
L 164.748492 -200.204211 
L 168.703158 -190.347188 
L 169.776748 -188.031579 
L 168.703158 -176.284046 
L 168.664718 -175.858947 
L 159.392891 -163.686316 
L 156.530526 -161.61023 
L 144.357895 -153.438361 
L 141.219045 -151.513684 
L 132.185263 -147.281057 
L 120.012632 -142.158305 
L 113.03962 -139.341053 
L 107.84 -137.267417 
L 107.84 -127.168421 
L 107.84 -122.106311 
z
" style="stroke: #2f6c8e"/>
    </defs>
    <g clip-path="url(#p2fa23f9b15)">
     <use xlink:href="#m198b835b1f" x="0" y="288" style="fill: #2f6c8e; stroke: #2f6c8e"/>
    </g>
   </g>
   <g id="PathCollection_5">
    <defs>
     <path id="m1d733a01fb" d="M 144.357895 -41.96 
L 156.530526 -41.96 
L 168.703158 -41.96 
L 180.875789 -41.96 
L 189.577626 -41.96 
L 193.048421 -42.654412 
L 205.221053 -44.742204 
L 217.393684 -46.480099 
L 229.566316 -47.976731 
L 241.738947 -49.336059 
L 253.911579 -50.643816 
L 266.084211 -51.962051 
L 278.256842 -53.330615 
L 285.046059 -54.132632 
L 290.429474 -54.772567 
L 302.602105 -56.260572 
L 314.774737 -57.807014 
L 326.947368 -59.467812 
L 339.12 -61.335247 
L 339.12 -66.305263 
L 339.12 -72.096907 
L 326.947368 -69.658082 
L 314.774737 -67.541821 
L 307.015183 -66.305263 
L 302.602105 -65.757249 
L 290.429474 -64.352658 
L 278.256842 -63.006154 
L 266.084211 -61.702886 
L 253.911579 -60.440568 
L 241.738947 -59.208649 
L 229.566316 -57.970092 
L 217.393684 -56.649565 
L 205.221053 -55.128197 
L 198.558927 -54.132632 
L 193.048421 -53.375935 
L 180.875789 -51.419652 
L 168.703158 -49.10309 
L 156.530526 -46.478358 
L 144.357895 -43.725528 
L 135.7219 -41.96 
z
M 339.12 -118.102556 
L 339.12 -127.168421 
L 339.12 -139.341053 
L 339.12 -151.513684 
L 339.12 -159.008177 
L 331.783333 -151.513684 
L 326.947368 -142.399196 
L 325.229408 -139.341053 
L 326.947368 -131.733644 
L 328.067504 -127.168421 
z
M 113.03962 -139.341053 
L 120.012632 -142.158305 
L 132.185263 -147.281057 
L 141.219045 -151.513684 
L 144.357895 -153.438361 
L 156.530526 -161.61023 
L 159.392891 -163.686316 
L 168.664718 -175.858947 
L 168.703158 -176.284046 
L 169.776748 -188.031579 
L 168.703158 -190.347188 
L 164.748492 -200.204211 
L 157.509535 -212.376842 
L 156.530526 -214.366377 
L 152.027741 -224.549474 
L 150.68406 -236.722105 
L 155.461759 -248.894737 
L 156.530526 -249.965871 
L 168.703158 -260.567843 
L 169.380859 -261.067368 
L 180.875789 -266.457911 
L 193.048421 -271.030249 
L 200.168591 -273.24 
L 193.048421 -273.24 
L 180.875789 -273.24 
L 168.703158 -273.24 
L 168.195631 -273.24 
L 156.530526 -267.3872 
L 146.356421 -261.067368 
L 144.357895 -259.063914 
L 135.302308 -248.894737 
L 132.185263 -239.36085 
L 131.333236 -236.722105 
L 132.185263 -227.368291 
L 132.43723 -224.549474 
L 136.854367 -212.376842 
L 142.33751 -200.204211 
L 144.357895 -192.274075 
L 145.522049 -188.031579 
L 144.357895 -182.735032 
L 142.730237 -175.858947 
L 132.185263 -164.347329 
L 131.519301 -163.686316 
L 120.012632 -156.813894 
L 110.238355 -151.513684 
L 107.84 -150.491143 
L 107.84 -139.341053 
L 107.84 -137.267417 
z
" style="stroke: #25848e"/>
    </defs>
    <g clip-path="url(#p2fa23f9b15)">
     <use xlink:href="#m1d733a01fb" x="0" y="288" style="fill: #25848e; stroke: #25848e"/>
    </g>
   </g>
   <g id="PathCollection_6">
    <defs>
     <path id="mc2b13afecf" d="M 193.048421 -41.96 
L 205.221053 -41.96 
L 217.393684 -41.96 
L 229.566316 -41.96 
L 241.738947 -41.96 
L 253.911579 -41.96 
L 261.164363 -41.96 
L 266.084211 -42.493237 
L 278.256842 -43.810226 
L 290.429474 -45.158705 
L 302.602105 -46.563089 
L 314.774737 -48.050255 
L 326.947368 -49.661352 
L 339.12 -51.461497 
L 339.12 -54.132632 
L 339.12 -61.335247 
L 326.947368 -59.467812 
L 314.774737 -57.807014 
L 302.602105 -56.260572 
L 290.429474 -54.772567 
L 285.046059 -54.132632 
L 278.256842 -53.330615 
L 266.084211 -51.962051 
L 253.911579 -50.643816 
L 241.738947 -49.336059 
L 229.566316 -47.976731 
L 217.393684 -46.480099 
L 205.221053 -44.742204 
L 193.048421 -42.654412 
L 189.577626 -41.96 
z
M 110.238355 -151.513684 
L 120.012632 -156.813894 
L 131.519301 -163.686316 
L 132.185263 -164.347329 
L 142.730237 -175.858947 
L 144.357895 -182.735032 
L 145.522049 -188.031579 
L 144.357895 -192.274075 
L 142.33751 -200.204211 
L 136.854367 -212.376842 
L 132.43723 -224.549474 
L 132.185263 -227.368291 
L 131.333236 -236.722105 
L 132.185263 -239.36085 
L 135.302308 -248.894737 
L 144.357895 -259.063914 
L 146.356421 -261.067368 
L 156.530526 -267.3872 
L 168.195631 -273.24 
L 156.530526 -273.24 
L 144.357895 -273.24 
L 140.494025 -273.24 
L 132.185263 -267.856355 
L 123.331184 -261.067368 
L 120.012632 -256.810474 
L 114.174415 -248.894737 
L 110.875027 -236.722105 
L 111.811609 -224.549474 
L 115.519121 -212.376842 
L 119.876675 -200.204211 
L 120.012632 -199.100319 
L 121.379291 -188.031579 
L 120.012632 -184.273067 
L 116.546649 -175.858947 
L 107.84 -168.019064 
L 107.84 -163.686316 
L 107.84 -151.513684 
L 107.84 -150.491143 
z
" style="stroke: #1e9c89"/>
    </defs>
    <g clip-path="url(#p2fa23f9b15)">
     <use xlink:href="#mc2b13afecf" x="0" y="288" style="fill: #1e9c89; stroke: #1e9c89"/>
    </g>
   </g>
   <g id="PathCollection_7">
    <defs>
     <path id="m2d524ba38c" d="M 266.084211 -41.96 
L 278.256842 -41.96 
L 290.429474 -41.96 
L 302.602105 -41.96 
L 314.774737 -41.96 
L 326.947368 -41.96 
L 339.12 -41.96 
L 339.12 -51.461497 
L 326.947368 -49.661352 
L 314.774737 -48.050255 
L 302.602105 -46.563089 
L 290.429474 -45.158705 
L 278.256842 -43.810226 
L 266.084211 -42.493237 
L 261.164363 -41.96 
z
M 116.546649 -175.858947 
L 120.012632 -184.273067 
L 121.379291 -188.031579 
L 120.012632 -199.100319 
L 119.876675 -200.204211 
L 115.519121 -212.376842 
L 111.811609 -224.549474 
L 110.875027 -236.722105 
L 114.174415 -248.894737 
L 120.012632 -256.810474 
L 123.331184 -261.067368 
L 132.185263 -267.856355 
L 140.494025 -273.24 
L 132.185263 -273.24 
L 120.012632 -273.24 
L 110.613174 -273.24 
L 107.84 -271.011699 
L 107.84 -261.067368 
L 107.84 -248.894737 
L 107.84 -236.722105 
L 107.84 -224.549474 
L 107.84 -212.376842 
L 107.84 -200.204211 
L 107.84 -188.031579 
L 107.84 -175.858947 
L 107.84 -168.019064 
z
" style="stroke: #2fb47c"/>
    </defs>
    <g clip-path="url(#p2fa23f9b15)">
     <use xlink:href="#m2d524ba38c" x="0" y="288" style="fill: #2fb47c; stroke: #2fb47c"/>
    </g>
   </g>
   <g id="PathCollection_8">
    <defs>
     <path id="mdd03bd6ce9" d="M 110.613174 -273.24 
L 107.84 -273.24 
L 107.84 -271.011699 
z
" style="stroke: #5ec962"/>
    </defs>
    <g clip-path="url(#p2fa23f9b15)">
     <use xlink:href="#mdd03bd6ce9" x="0" y="288" style="fill: #5ec962; stroke: #5ec962"/>
    </g>
   </g>
   <g id="PathCollection_9"/>
   <g id="PathCollection_10"/>
   <g id="matplotlib.axis_1">
    <g id="xtick_1">
     <g id="line2d_1">
      <defs>
       <path id="m828c3e6d11" d="M 0 0 
L 0 3.5 
" style="stroke: #000000; stroke-width: 0.8"/>
      </defs>
      <g>
       <use xlink:href="#m828c3e6d11" x="107.84" y="246.04" style="stroke: #000000; stroke-width: 0.8"/>
      </g>
     </g>
     <g id="text_1">
      <!-- −5 -->
      <g transform="translate(100.468906 260.638438) scale(0.1 -0.1)">
       <defs>
        <path id="DejaVuSans-2212" d="M 678 2272 
L 4684 2272 
L 4684 1741 
L 678 1741 
L 678 2272 
z
" transform="scale(0.015625)"/>
        <path id="DejaVuSans-35" d="M 691 4666 
L 3169 4666 
L 3169 4134 
L 1269 4134 
L 1269 2991 
Q 1406 3038 1543 3061 
Q 1681 3084 1819 3084 
Q 2600 3084 3056 2656 
Q 3513 2228 3513 1497 
Q 3513 744 3044 326 
Q 2575 -91 1722 -91 
Q 1428 -91 1123 -41 
Q 819 9 494 109 
L 494 744 
Q 775 591 1075 516 
Q 1375 441 1709 441 
Q 2250 441 2565 725 
Q 2881 1009 2881 1497 
Q 2881 1984 2565 2268 
Q 2250 2553 1709 2553 
Q 1456 2553 1204 2497 
Q 953 2441 691 2322 
L 691 4666 
z
" transform="scale(0.015625)"/>
       </defs>
       <use xlink:href="#DejaVuSans-2212"/>
       <use xlink:href="#DejaVuSans-35" x="83.789062"/>
      </g>
     </g>
    </g>
    <g id="xtick_2">
     <g id="line2d_2">
      <g>
       <use xlink:href="#m828c3e6d11" x="223.48" y="246.04" style="stroke: #000000; stroke-width: 0.8"/>
      </g>
     </g>
     <g id="text_2">
      <!-- 0 -->
      <g transform="translate(220.29875 260.638438) scale(0.1 -0.1)">
       <defs>
        <path id="DejaVuSans-30" d="M 2034 4250 
Q 1547 4250 1301 3770 
Q 1056 3291 1056 2328 
Q 1056 1369 1301 889 
Q 1547 409 2034 409 
Q 2525 409 2770 889 
Q 3016 1369 3016 2328 
Q 3016 3291 2770 3770 
Q 2525 4250 2034 4250 
z
M 2034 4750 
Q 2819 4750 3233 4129 
Q 3647 3509 3647 2328 
Q 3647 1150 3233 529 
Q 2819 -91 2034 -91 
Q 1250 -91 836 529 
Q 422 1150 422 2328 
Q 422 3509 836 4129 
Q 1250 4750 2034 4750 
z
" transform="scale(0.015625)"/>
       </defs>
       <use xlink:href="#DejaVuSans-30"/>
      </g>
     </g>
    </g>
    <g id="xtick_3">
     <g id="line2d_3">
      <g>
       <use xlink:href="#m828c3e6d11" x="339.12" y="246.04" style="stroke: #000000; stroke-width: 0.8"/>
      </g>
     </g>
     <g id="text_3">
      <!-- 5 -->
      <g transform="translate(335.93875 260.638438) scale(0.1 -0.1)">
       <use xlink:href="#DejaVuSans-35"/>
      </g>
     </g>
    </g>
    <g id="text_4">
     <!-- $x$ -->
     <g transform="translate(220.48 274.316563) scale(0.1 -0.1)">
      <defs>
       <path id="DejaVuSans-Oblique-78" d="M 3841 3500 
L 2234 1784 
L 3219 0 
L 2559 0 
L 1819 1388 
L 531 0 
L -166 0 
L 1556 1844 
L 641 3500 
L 1300 3500 
L 1972 2234 
L 3144 3500 
L 3841 3500 
z
" transform="scale(0.015625)"/>
      </defs>
      <use xlink:href="#DejaVuSans-Oblique-78" transform="translate(0 0.3125)"/>
     </g>
    </g>
   </g>
   <g id="matplotlib.axis_2">
    <g id="ytick_1">
     <g id="line2d_4">
      <defs>
       <path id="mde6b7a732d" d="M 0 0 
L -3.5 0 
" style="stroke: #000000; stroke-width: 0.8"/>
      </defs>
      <g>
       <use xlink:href="#mde6b7a732d" x="107.84" y="246.04" style="stroke: #000000; stroke-width: 0.8"/>
      </g>
     </g>
     <g id="text_5">
      <!-- −5 -->
      <g transform="translate(86.097812 249.839219) scale(0.1 -0.1)">
       <use xlink:href="#DejaVuSans-2212"/>
       <use xlink:href="#DejaVuSans-35" x="83.789062"/>
      </g>
     </g>
    </g>
    <g id="ytick_2">
     <g id="line2d_5">
      <g>
       <use xlink:href="#mde6b7a732d" x="107.84" y="130.4" style="stroke: #000000; stroke-width: 0.8"/>
      </g>
     </g>
     <g id="text_6">
      <!-- 0 -->
      <g transform="translate(94.4775 134.199219) scale(0.1 -0.1)">
       <use xlink:href="#DejaVuSans-30"/>
      </g>
     </g>
    </g>
    <g id="ytick_3">
     <g id="line2d_6">
      <g>
       <use xlink:href="#mde6b7a732d" x="107.84" y="14.76" style="stroke: #000000; stroke-width: 0.8"/>
      </g>
     </g>
     <g id="text_7">
      <!-- 5 -->
      <g transform="translate(94.4775 18.559219) scale(0.1 -0.1)">
       <use xlink:href="#DejaVuSans-35"/>
      </g>
     </g>
    </g>
    <g id="text_8">
     <!-- $y$ -->
     <g transform="translate(79.997812 133.4) rotate(-90) scale(0.1 -0.1)">
      <defs>
       <path id="DejaVuSans-Oblique-79" d="M 1588 -325 
Q 1188 -997 936 -1164 
Q 684 -1331 294 -1331 
L -159 -1331 
L -63 -850 
L 269 -850 
Q 509 -850 678 -719 
Q 847 -588 1056 -206 
L 1234 128 
L 459 3500 
L 1069 3500 
L 1650 819 
L 3256 3500 
L 3859 3500 
L 1588 -325 
z
" transform="scale(0.015625)"/>
      </defs>
      <use xlink:href="#DejaVuSans-Oblique-79" transform="translate(0 0.3125)"/>
     </g>
    </g>
   </g>
   <g id="line2d_7">
    <defs>
     <path id="m3be690bd7e" d="M 0 3 
C 0.795609 3 1.55874 2.683901 2.12132 2.12132 
C 2.683901 1.55874 3 0.795609 3 0 
C 3 -0.795609 2.683901 -1.55874 2.12132 -2.12132 
C 1.55874 -2.683901 0.795609 -3 0 -3 
C -0.795609 -3 -1.55874 -2.683901 -2.12132 -2.12132 
C -2.683901 -1.55874 -3 -0.795609 -3 0 
C -3 0.795609 -2.683901 1.55874 -2.12132 2.12132 
C -1.55874 2.683901 -0.795609 3 0 3 
z
" style="stroke: #ff7f0e"/>
    </defs>
    <g clip-path="url(#p2fa23f9b15)">
     <use xlink:href="#m3be690bd7e" x="314.774737" y="99.968421" style="fill: #ff7f0e; stroke: #ff7f0e"/>
     <use xlink:href="#m3be690bd7e" x="205.221053" y="63.450526" style="fill: #ff7f0e; stroke: #ff7f0e"/>
     <use xlink:href="#m3be690bd7e" x="217.393684" y="160.831579" style="fill: #ff7f0e; stroke: #ff7f0e"/>
     <use xlink:href="#m3be690bd7e" x="229.566316" y="173.004211" style="fill: #ff7f0e; stroke: #ff7f0e"/>
     <use xlink:href="#m3be690bd7e" x="241.738947" y="160.831579" style="fill: #ff7f0e; stroke: #ff7f0e"/>
     <use xlink:href="#m3be690bd7e" x="339.12" y="39.105263" style="fill: #ff7f0e; stroke: #ff7f0e"/>
     <use xlink:href="#m3be690bd7e" x="339.12" y="197.349474" style="fill: #ff7f0e; stroke: #ff7f0e"/>
     <use xlink:href="#m3be690bd7e" x="253.911579" y="26.932632" style="fill: #ff7f0e; stroke: #ff7f0e"/>
     <use xlink:href="#m3be690bd7e" x="193.048421" y="197.349474" style="fill: #ff7f0e; stroke: #ff7f0e"/>
     <use xlink:href="#m3be690bd7e" x="229.566316" y="51.277895" style="fill: #ff7f0e; stroke: #ff7f0e"/>
     <use xlink:href="#m3be690bd7e" x="278.256842" y="124.313684" style="fill: #ff7f0e; stroke: #ff7f0e"/>
     <use xlink:href="#m3be690bd7e" x="120.012632" y="173.004211" style="fill: #ff7f0e; stroke: #ff7f0e"/>
     <use xlink:href="#m3be690bd7e" x="339.12" y="14.76" style="fill: #ff7f0e; stroke: #ff7f0e"/>
     <use xlink:href="#m3be690bd7e" x="107.84" y="233.867368" style="fill: #ff7f0e; stroke: #ff7f0e"/>
     <use xlink:href="#m3be690bd7e" x="205.221053" y="136.486316" style="fill: #ff7f0e; stroke: #ff7f0e"/>
     <use xlink:href="#m3be690bd7e" x="241.738947" y="209.522105" style="fill: #ff7f0e; stroke: #ff7f0e"/>
     <use xlink:href="#m3be690bd7e" x="180.875789" y="185.176842" style="fill: #ff7f0e; stroke: #ff7f0e"/>
     <use xlink:href="#m3be690bd7e" x="229.566316" y="87.795789" style="fill: #ff7f0e; stroke: #ff7f0e"/>
     <use xlink:href="#m3be690bd7e" x="205.221053" y="39.105263" style="fill: #ff7f0e; stroke: #ff7f0e"/>
     <use xlink:href="#m3be690bd7e" x="132.185263" y="185.176842" style="fill: #ff7f0e; stroke: #ff7f0e"/>
    </g>
   </g>
   <g id="patch_3">
    <path d="M 107.84 246.04 
L 107.84 14.76 
" style="fill: none; stroke: #000000; stroke-width: 0.8; stroke-linejoin: miter; stroke-linecap: square"/>
   </g>
   <g id="patch_4">
    <path d="M 339.12 246.04 
L 339.12 14.76 
" style="fill: none; stroke: #000000; stroke-width: 0.8; stroke-linejoin: miter; stroke-linecap: square"/>
   </g>
   <g id="patch_5">
    <path d="M 107.84 246.04 
L 339.12 246.04 
" style="fill: none; stroke: #000000; stroke-width: 0.8; stroke-linejoin: miter; stroke-linecap: square"/>
   </g>
   <g id="patch_6">
    <path d="M 107.84 14.76 
L 339.12 14.76 
" style="fill: none; stroke: #000000; stroke-width: 0.8; stroke-linejoin: miter; stroke-linecap: square"/>
   </g>
  </g>
  <g id="axes_2">
   <g id="patch_7">
    <path d="M 359.64 246.04 
L 371.204 246.04 
L 371.204 14.76 
L 359.64 14.76 
z
" style="fill: #ffffff"/>
   </g>
   <g id="QuadMesh_1">
    <path d="M 359.64 246.04 
L 371.204 246.04 
L 371.204 222.912 
L 359.64 222.912 
L 359.64 246.04 
" clip-path="url(#p8bf428b6ad)" style="fill: #471365"/>
    <path d="M 359.64 222.912 
L 371.204 222.912 
L 371.204 199.784 
L 359.64 199.784 
L 359.64 222.912 
" clip-path="url(#p8bf428b6ad)" style="fill: #463480"/>
    <path d="M 359.64 199.784 
L 371.204 199.784 
L 371.204 176.656 
L 359.64 176.656 
L 359.64 199.784 
" clip-path="url(#p8bf428b6ad)" style="fill: #3b528b"/>
    <path d="M 359.64 176.656 
L 371.204 176.656 
L 371.204 153.528 
L 359.64 153.528 
L 359.64 176.656 
" clip-path="url(#p8bf428b6ad)" style="fill: #2f6c8e"/>
    <path d="M 359.64 153.528 
L 371.204 153.528 
L 371.204 130.4 
L 359.64 130.4 
L 359.64 153.528 
" clip-path="url(#p8bf428b6ad)" style="fill: #25848e"/>
    <path d="M 359.64 130.4 
L 371.204 130.4 
L 371.204 107.272 
L 359.64 107.272 
L 359.64 130.4 
" clip-path="url(#p8bf428b6ad)" style="fill: #1e9c89"/>
    <path d="M 359.64 107.272 
L 371.204 107.272 
L 371.204 84.144 
L 359.64 84.144 
L 359.64 107.272 
" clip-path="url(#p8bf428b6ad)" style="fill: #2fb47c"/>
    <path d="M 359.64 84.144 
L 371.204 84.144 
L 371.204 61.016 
L 359.64 61.016 
L 359.64 84.144 
" clip-path="url(#p8bf428b6ad)" style="fill: #5ec962"/>
    <path d="M 359.64 61.016 
L 371.204 61.016 
L 371.204 37.888 
L 359.64 37.888 
L 359.64 61.016 
" clip-path="url(#p8bf428b6ad)" style="fill: #9bd93c"/>
    <path d="M 359.64 37.888 
L 371.204 37.888 
L 371.204 14.76 
L 359.64 14.76 
L 359.64 37.888 
" clip-path="url(#p8bf428b6ad)" style="fill: #dfe318"/>
   </g>
   <g id="matplotlib.axis_3"/>
   <g id="matplotlib.axis_4">
    <g id="ytick_4">
     <g id="line2d_8">
      <defs>
       <path id="m6caaccb28b" d="M 0 0 
L 3.5 0 
" style="stroke: #000000; stroke-width: 0.8"/>
      </defs>
      <g>
       <use xlink:href="#m6caaccb28b" x="371.204" y="246.04" style="stroke: #000000; stroke-width: 0.8"/>
      </g>
     </g>
     <g id="text_9">
      <!-- 2.0 -->
      <g transform="translate(378.204 249.839219) scale(0.1 -0.1)">
       <defs>
        <path id="DejaVuSans-32" d="M 1228 531 
L 3431 531 
L 3431 0 
L 469 0 
L 469 531 
Q 828 903 1448 1529 
Q 2069 2156 2228 2338 
Q 2531 2678 2651 2914 
Q 2772 3150 2772 3378 
Q 2772 3750 2511 3984 
Q 2250 4219 1831 4219 
Q 1534 4219 1204 4116 
Q 875 4013 500 3803 
L 500 4441 
Q 881 4594 1212 4672 
Q 1544 4750 1819 4750 
Q 2544 4750 2975 4387 
Q 3406 4025 3406 3419 
Q 3406 3131 3298 2873 
Q 3191 2616 2906 2266 
Q 2828 2175 2409 1742 
Q 1991 1309 1228 531 
z
" transform="scale(0.015625)"/>
        <path id="DejaVuSans-2e" d="M 684 794 
L 1344 794 
L 1344 0 
L 684 0 
L 684 794 
z
" transform="scale(0.015625)"/>
       </defs>
       <use xlink:href="#DejaVuSans-32"/>
       <use xlink:href="#DejaVuSans-2e" x="63.623047"/>
       <use xlink:href="#DejaVuSans-30" x="95.410156"/>
      </g>
     </g>
    </g>
    <g id="ytick_5">
     <g id="line2d_9">
      <g>
       <use xlink:href="#m6caaccb28b" x="371.204" y="199.784" style="stroke: #000000; stroke-width: 0.8"/>
      </g>
     </g>
     <g id="text_10">
      <!-- 2.6 -->
      <g transform="translate(378.204 203.583219) scale(0.1 -0.1)">
       <defs>
        <path id="DejaVuSans-36" d="M 2113 2584 
Q 1688 2584 1439 2293 
Q 1191 2003 1191 1497 
Q 1191 994 1439 701 
Q 1688 409 2113 409 
Q 2538 409 2786 701 
Q 3034 994 3034 1497 
Q 3034 2003 2786 2293 
Q 2538 2584 2113 2584 
z
M 3366 4563 
L 3366 3988 
Q 3128 4100 2886 4159 
Q 2644 4219 2406 4219 
Q 1781 4219 1451 3797 
Q 1122 3375 1075 2522 
Q 1259 2794 1537 2939 
Q 1816 3084 2150 3084 
Q 2853 3084 3261 2657 
Q 3669 2231 3669 1497 
Q 3669 778 3244 343 
Q 2819 -91 2113 -91 
Q 1303 -91 875 529 
Q 447 1150 447 2328 
Q 447 3434 972 4092 
Q 1497 4750 2381 4750 
Q 2619 4750 2861 4703 
Q 3103 4656 3366 4563 
z
" transform="scale(0.015625)"/>
       </defs>
       <use xlink:href="#DejaVuSans-32"/>
       <use xlink:href="#DejaVuSans-2e" x="63.623047"/>
       <use xlink:href="#DejaVuSans-36" x="95.410156"/>
      </g>
     </g>
    </g>
    <g id="ytick_6">
     <g id="line2d_10">
      <g>
       <use xlink:href="#m6caaccb28b" x="371.204" y="153.528" style="stroke: #000000; stroke-width: 0.8"/>
      </g>
     </g>
     <g id="text_11">
      <!-- 3.2 -->
      <g transform="translate(378.204 157.327219) scale(0.1 -0.1)">
       <defs>
        <path id="DejaVuSans-33" d="M 2597 2516 
Q 3050 2419 3304 2112 
Q 3559 1806 3559 1356 
Q 3559 666 3084 287 
Q 2609 -91 1734 -91 
Q 1441 -91 1130 -33 
Q 819 25 488 141 
L 488 750 
Q 750 597 1062 519 
Q 1375 441 1716 441 
Q 2309 441 2620 675 
Q 2931 909 2931 1356 
Q 2931 1769 2642 2001 
Q 2353 2234 1838 2234 
L 1294 2234 
L 1294 2753 
L 1863 2753 
Q 2328 2753 2575 2939 
Q 2822 3125 2822 3475 
Q 2822 3834 2567 4026 
Q 2313 4219 1838 4219 
Q 1578 4219 1281 4162 
Q 984 4106 628 3988 
L 628 4550 
Q 988 4650 1302 4700 
Q 1616 4750 1894 4750 
Q 2613 4750 3031 4423 
Q 3450 4097 3450 3541 
Q 3450 3153 3228 2886 
Q 3006 2619 2597 2516 
z
" transform="scale(0.015625)"/>
       </defs>
       <use xlink:href="#DejaVuSans-33"/>
       <use xlink:href="#DejaVuSans-2e" x="63.623047"/>
       <use xlink:href="#DejaVuSans-32" x="95.410156"/>
      </g>
     </g>
    </g>
    <g id="ytick_7">
     <g id="line2d_11">
      <g>
       <use xlink:href="#m6caaccb28b" x="371.204" y="107.272" style="stroke: #000000; stroke-width: 0.8"/>
      </g>
     </g>
     <g id="text_12">
      <!-- 3.8 -->
      <g transform="translate(378.204 111.071219) scale(0.1 -0.1)">
       <defs>
        <path id="DejaVuSans-38" d="M 2034 2216 
Q 1584 2216 1326 1975 
Q 1069 1734 1069 1313 
Q 1069 891 1326 650 
Q 1584 409 2034 409 
Q 2484 409 2743 651 
Q 3003 894 3003 1313 
Q 3003 1734 2745 1975 
Q 2488 2216 2034 2216 
z
M 1403 2484 
Q 997 2584 770 2862 
Q 544 3141 544 3541 
Q 544 4100 942 4425 
Q 1341 4750 2034 4750 
Q 2731 4750 3128 4425 
Q 3525 4100 3525 3541 
Q 3525 3141 3298 2862 
Q 3072 2584 2669 2484 
Q 3125 2378 3379 2068 
Q 3634 1759 3634 1313 
Q 3634 634 3220 271 
Q 2806 -91 2034 -91 
Q 1263 -91 848 271 
Q 434 634 434 1313 
Q 434 1759 690 2068 
Q 947 2378 1403 2484 
z
M 1172 3481 
Q 1172 3119 1398 2916 
Q 1625 2713 2034 2713 
Q 2441 2713 2670 2916 
Q 2900 3119 2900 3481 
Q 2900 3844 2670 4047 
Q 2441 4250 2034 4250 
Q 1625 4250 1398 4047 
Q 1172 3844 1172 3481 
z
" transform="scale(0.015625)"/>
       </defs>
       <use xlink:href="#DejaVuSans-33"/>
       <use xlink:href="#DejaVuSans-2e" x="63.623047"/>
       <use xlink:href="#DejaVuSans-38" x="95.410156"/>
      </g>
     </g>
    </g>
    <g id="ytick_8">
     <g id="line2d_12">
      <g>
       <use xlink:href="#m6caaccb28b" x="371.204" y="61.016" style="stroke: #000000; stroke-width: 0.8"/>
      </g>
     </g>
     <g id="text_13">
      <!-- 4.4 -->
      <g transform="translate(378.204 64.815219) scale(0.1 -0.1)">
       <defs>
        <path id="DejaVuSans-34" d="M 2419 4116 
L 825 1625 
L 2419 1625 
L 2419 4116 
z
M 2253 4666 
L 3047 4666 
L 3047 1625 
L 3713 1625 
L 3713 1100 
L 3047 1100 
L 3047 0 
L 2419 0 
L 2419 1100 
L 313 1100 
L 313 1709 
L 2253 4666 
z
" transform="scale(0.015625)"/>
       </defs>
       <use xlink:href="#DejaVuSans-34"/>
       <use xlink:href="#DejaVuSans-2e" x="63.623047"/>
       <use xlink:href="#DejaVuSans-34" x="95.410156"/>
      </g>
     </g>
    </g>
    <g id="ytick_9">
     <g id="line2d_13">
      <g>
       <use xlink:href="#m6caaccb28b" x="371.204" y="14.76" style="stroke: #000000; stroke-width: 0.8"/>
      </g>
     </g>
     <g id="text_14">
      <!-- 5.0 -->
      <g transform="translate(378.204 18.559219) scale(0.1 -0.1)">
       <use xlink:href="#DejaVuSans-35"/>
       <use xlink:href="#DejaVuSans-2e" x="63.623047"/>
       <use xlink:href="#DejaVuSans-30" x="95.410156"/>
      </g>
     </g>
    </g>
    <g id="text_15">
     <!-- Posterior standard deviation -->
     <g transform="translate(405.705562 201.090625) rotate(-90) scale(0.1 -0.1)">
      <defs>
       <path id="DejaVuSans-50" d="M 1259 4147 
L 1259 2394 
L 2053 2394 
Q 2494 2394 2734 2622 
Q 2975 2850 2975 3272 
Q 2975 3691 2734 3919 
Q 2494 4147 2053 4147 
L 1259 4147 
z
M 628 4666 
L 2053 4666 
Q 2838 4666 3239 4311 
Q 3641 3956 3641 3272 
Q 3641 2581 3239 2228 
Q 2838 1875 2053 1875 
L 1259 1875 
L 1259 0 
L 628 0 
L 628 4666 
z
" transform="scale(0.015625)"/>
       <path id="DejaVuSans-6f" d="M 1959 3097 
Q 1497 3097 1228 2736 
Q 959 2375 959 1747 
Q 959 1119 1226 758 
Q 1494 397 1959 397 
Q 2419 397 2687 759 
Q 2956 1122 2956 1747 
Q 2956 2369 2687 2733 
Q 2419 3097 1959 3097 
z
M 1959 3584 
Q 2709 3584 3137 3096 
Q 3566 2609 3566 1747 
Q 3566 888 3137 398 
Q 2709 -91 1959 -91 
Q 1206 -91 779 398 
Q 353 888 353 1747 
Q 353 2609 779 3096 
Q 1206 3584 1959 3584 
z
" transform="scale(0.015625)"/>
       <path id="DejaVuSans-73" d="M 2834 3397 
L 2834 2853 
Q 2591 2978 2328 3040 
Q 2066 3103 1784 3103 
Q 1356 3103 1142 2972 
Q 928 2841 928 2578 
Q 928 2378 1081 2264 
Q 1234 2150 1697 2047 
L 1894 2003 
Q 2506 1872 2764 1633 
Q 3022 1394 3022 966 
Q 3022 478 2636 193 
Q 2250 -91 1575 -91 
Q 1294 -91 989 -36 
Q 684 19 347 128 
L 347 722 
Q 666 556 975 473 
Q 1284 391 1588 391 
Q 1994 391 2212 530 
Q 2431 669 2431 922 
Q 2431 1156 2273 1281 
Q 2116 1406 1581 1522 
L 1381 1569 
Q 847 1681 609 1914 
Q 372 2147 372 2553 
Q 372 3047 722 3315 
Q 1072 3584 1716 3584 
Q 2034 3584 2315 3537 
Q 2597 3491 2834 3397 
z
" transform="scale(0.015625)"/>
       <path id="DejaVuSans-74" d="M 1172 4494 
L 1172 3500 
L 2356 3500 
L 2356 3053 
L 1172 3053 
L 1172 1153 
Q 1172 725 1289 603 
Q 1406 481 1766 481 
L 2356 481 
L 2356 0 
L 1766 0 
Q 1100 0 847 248 
Q 594 497 594 1153 
L 594 3053 
L 172 3053 
L 172 3500 
L 594 3500 
L 594 4494 
L 1172 4494 
z
" transform="scale(0.015625)"/>
       <path id="DejaVuSans-65" d="M 3597 1894 
L 3597 1613 
L 953 1613 
Q 991 1019 1311 708 
Q 1631 397 2203 397 
Q 2534 397 2845 478 
Q 3156 559 3463 722 
L 3463 178 
Q 3153 47 2828 -22 
Q 2503 -91 2169 -91 
Q 1331 -91 842 396 
Q 353 884 353 1716 
Q 353 2575 817 3079 
Q 1281 3584 2069 3584 
Q 2775 3584 3186 3129 
Q 3597 2675 3597 1894 
z
M 3022 2063 
Q 3016 2534 2758 2815 
Q 2500 3097 2075 3097 
Q 1594 3097 1305 2825 
Q 1016 2553 972 2059 
L 3022 2063 
z
" transform="scale(0.015625)"/>
       <path id="DejaVuSans-72" d="M 2631 2963 
Q 2534 3019 2420 3045 
Q 2306 3072 2169 3072 
Q 1681 3072 1420 2755 
Q 1159 2438 1159 1844 
L 1159 0 
L 581 0 
L 581 3500 
L 1159 3500 
L 1159 2956 
Q 1341 3275 1631 3429 
Q 1922 3584 2338 3584 
Q 2397 3584 2469 3576 
Q 2541 3569 2628 3553 
L 2631 2963 
z
" transform="scale(0.015625)"/>
       <path id="DejaVuSans-69" d="M 603 3500 
L 1178 3500 
L 1178 0 
L 603 0 
L 603 3500 
z
M 603 4863 
L 1178 4863 
L 1178 4134 
L 603 4134 
L 603 4863 
z
" transform="scale(0.015625)"/>
       <path id="DejaVuSans-20" transform="scale(0.015625)"/>
       <path id="DejaVuSans-61" d="M 2194 1759 
Q 1497 1759 1228 1600 
Q 959 1441 959 1056 
Q 959 750 1161 570 
Q 1363 391 1709 391 
Q 2188 391 2477 730 
Q 2766 1069 2766 1631 
L 2766 1759 
L 2194 1759 
z
M 3341 1997 
L 3341 0 
L 2766 0 
L 2766 531 
Q 2569 213 2275 61 
Q 1981 -91 1556 -91 
Q 1019 -91 701 211 
Q 384 513 384 1019 
Q 384 1609 779 1909 
Q 1175 2209 1959 2209 
L 2766 2209 
L 2766 2266 
Q 2766 2663 2505 2880 
Q 2244 3097 1772 3097 
Q 1472 3097 1187 3025 
Q 903 2953 641 2809 
L 641 3341 
Q 956 3463 1253 3523 
Q 1550 3584 1831 3584 
Q 2591 3584 2966 3190 
Q 3341 2797 3341 1997 
z
" transform="scale(0.015625)"/>
       <path id="DejaVuSans-6e" d="M 3513 2113 
L 3513 0 
L 2938 0 
L 2938 2094 
Q 2938 2591 2744 2837 
Q 2550 3084 2163 3084 
Q 1697 3084 1428 2787 
Q 1159 2491 1159 1978 
L 1159 0 
L 581 0 
L 581 3500 
L 1159 3500 
L 1159 2956 
Q 1366 3272 1645 3428 
Q 1925 3584 2291 3584 
Q 2894 3584 3203 3211 
Q 3513 2838 3513 2113 
z
" transform="scale(0.015625)"/>
       <path id="DejaVuSans-64" d="M 2906 2969 
L 2906 4863 
L 3481 4863 
L 3481 0 
L 2906 0 
L 2906 525 
Q 2725 213 2448 61 
Q 2172 -91 1784 -91 
Q 1150 -91 751 415 
Q 353 922 353 1747 
Q 353 2572 751 3078 
Q 1150 3584 1784 3584 
Q 2172 3584 2448 3432 
Q 2725 3281 2906 2969 
z
M 947 1747 
Q 947 1113 1208 752 
Q 1469 391 1925 391 
Q 2381 391 2643 752 
Q 2906 1113 2906 1747 
Q 2906 2381 2643 2742 
Q 2381 3103 1925 3103 
Q 1469 3103 1208 2742 
Q 947 2381 947 1747 
z
" transform="scale(0.015625)"/>
       <path id="DejaVuSans-76" d="M 191 3500 
L 800 3500 
L 1894 563 
L 2988 3500 
L 3597 3500 
L 2284 0 
L 1503 0 
L 191 3500 
z
" transform="scale(0.015625)"/>
      </defs>
      <use xlink:href="#DejaVuSans-50"/>
      <use xlink:href="#DejaVuSans-6f" x="56.677734"/>
      <use xlink:href="#DejaVuSans-73" x="117.859375"/>
      <use xlink:href="#DejaVuSans-74" x="169.958984"/>
      <use xlink:href="#DejaVuSans-65" x="209.167969"/>
      <use xlink:href="#DejaVuSans-72" x="270.691406"/>
      <use xlink:href="#DejaVuSans-69" x="311.804688"/>
      <use xlink:href="#DejaVuSans-6f" x="339.587891"/>
      <use xlink:href="#DejaVuSans-72" x="400.769531"/>
      <use xlink:href="#DejaVuSans-20" x="441.882812"/>
      <use xlink:href="#DejaVuSans-73" x="473.669922"/>
      <use xlink:href="#DejaVuSans-74" x="525.769531"/>
      <use xlink:href="#DejaVuSans-61" x="564.978516"/>
      <use xlink:href="#DejaVuSans-6e" x="626.257812"/>
      <use xlink:href="#DejaVuSans-64" x="689.636719"/>
      <use xlink:href="#DejaVuSans-61" x="753.113281"/>
      <use xlink:href="#DejaVuSans-72" x="814.392578"/>
      <use xlink:href="#DejaVuSans-64" x="853.755859"/>
      <use xlink:href="#DejaVuSans-20" x="917.232422"/>
      <use xlink:href="#DejaVuSans-64" x="949.019531"/>
      <use xlink:href="#DejaVuSans-65" x="1012.496094"/>
      <use xlink:href="#DejaVuSans-76" x="1074.019531"/>
      <use xlink:href="#DejaVuSans-69" x="1133.199219"/>
      <use xlink:href="#DejaVuSans-61" x="1160.982422"/>
      <use xlink:href="#DejaVuSans-74" x="1222.261719"/>
      <use xlink:href="#DejaVuSans-69" x="1261.470703"/>
      <use xlink:href="#DejaVuSans-6f" x="1289.253906"/>
      <use xlink:href="#DejaVuSans-6e" x="1350.435547"/>
     </g>
    </g>
   </g>
   <g id="LineCollection_1"/>
   <g id="patch_8">
    <path d="M 359.64 246.04 
L 365.422 246.04 
L 371.204 246.04 
L 371.204 14.76 
L 365.422 14.76 
L 359.64 14.76 
L 359.64 246.04 
z
" style="fill: none; stroke: #000000; stroke-width: 0.8; stroke-linejoin: miter; stroke-linecap: square"/>
   </g>
  </g>
 </g>
 <defs>
  <clipPath id="p2fa23f9b15">
   <rect x="107.84" y="14.76" width="231.28" height="231.28"/>
  </clipPath>
  <clipPath id="p8bf428b6ad">
   <rect x="359.64" y="14.76" width="11.564" height="231.28"/>
  </clipPath>
 </defs>
</svg>
