<?xml version="1.0" encoding="utf-8" standalone="no"?>
<!DOCTYPE svg PUBLIC "-//W3C//DTD SVG 1.1//EN"
  "http://www.w3.org/Graphics/SVG/1.1/DTD/svg11.dtd">
<svg xmlns:xlink="http://www.w3.org/1999/xlink" width="432pt" height="288pt" viewBox="0 0 432 288" xmlns="http://www.w3.org/2000/svg" version="1.1">
 <metadata>
  <rdf:RDF xmlns:dc="http://purl.org/dc/elements/1.1/" xmlns:cc="http://creativecommons.org/ns#" xmlns:rdf="http://www.w3.org/1999/02/22-rdf-syntax-ns#">
   <cc:Work>
    <dc:type rdf:resource="http://purl.org/dc/dcmitype/StillImage"/>
    <dc:date>2025-01-22T01:21:54.613977</dc:date>
    <dc:format>image/svg+xml</dc:format>
    <dc:creator>
     <cc:Agent>
      <dc:title>Matplotlib v3.9.1, https://matplotlib.org/</dc:title>
     </cc:Agent>
    </dc:creator>
   </cc:Work>
  </rdf:RDF>
 </metadata>
 <defs>
  <style type="text/css">*{stroke-linejoin: round; stroke-linecap: butt}</style>
 </defs>
 <g id="figure_1">
  <g id="patch_1">
   <path d="M 0 288 
L 432 288 
L 432 0 
L 0 0 
z
" style="fill: #ffffff"/>
  </g>
  <g id="axes_1">
   <g id="patch_2">
    <path d="M 107.84 246.04 
L 339.12 246.04 
L 339.12 14.76 
L 107.84 14.76 
z
" style="fill: #ffffff"/>
   </g>
   <g id="PathCollection_1">
    <defs>
     <path id="mf379736dc7" d="M 168.703158 -53.708475 
L 175.781681 -54.132632 
L 168.703158 -56.219691 
L 161.338644 -54.132632 
z
M 180.875789 -56.835577 
L 193.048421 -59.076807 
L 205.221053 -60.623535 
L 217.393684 -61.927326 
L 229.566316 -63.009893 
L 241.738947 -63.880987 
L 253.911579 -64.610971 
L 266.084211 -65.372303 
L 276.639289 -66.305263 
L 278.256842 -66.702519 
L 290.429474 -70.897319 
L 302.602105 -75.608118 
L 308.295832 -78.477895 
L 314.774737 -83.990541 
L 321.921103 -90.650526 
L 326.947368 -95.915294 
L 332.295606 -102.823158 
L 339.12 -113.105209 
L 339.12 -114.995789 
L 339.12 -126.754227 
L 338.977611 -127.168421 
L 326.947368 -130.920997 
L 314.774737 -128.237303 
L 312.331692 -127.168421 
L 302.602105 -121.109787 
L 291.665743 -114.995789 
L 290.429474 -114.052861 
L 278.256842 -107.408248 
L 266.084211 -103.747757 
L 258.647953 -102.823158 
L 253.911579 -102.080293 
L 241.738947 -102.191622 
L 234.788122 -102.823158 
L 229.566316 -103.313263 
L 217.393684 -103.80535 
L 214.764654 -102.823158 
L 205.221053 -97.743534 
L 201.638431 -90.650526 
L 193.048421 -81.683202 
L 190.853448 -78.477895 
L 180.875789 -69.475746 
L 176.702288 -66.305263 
z
M 144.357895 -136.976188 
L 156.530526 -133.776363 
L 168.703158 -131.336726 
L 180.148248 -139.341053 
L 168.703158 -148.881901 
L 166.549851 -151.513684 
L 156.530526 -155.762788 
L 144.357895 -159.223399 
L 132.185263 -159.166924 
L 120.851219 -151.513684 
L 132.185263 -143.057577 
L 137.783527 -139.341053 
z
M 302.602105 -236.116632 
L 304.894199 -236.722105 
L 307.865657 -248.894737 
L 302.602105 -252.044971 
L 293.263557 -248.894737 
L 300.519522 -236.722105 
z
M 144.357895 -261.002541 
L 156.530526 -260.132621 
L 168.703158 -260.513034 
L 173.149819 -261.067368 
L 168.703158 -261.63372 
L 156.530526 -262.490201 
L 144.357895 -261.232532 
L 144.048539 -261.067368 
z
" style="stroke: #471365"/>
    </defs>
    <g clip-path="url(#p2a20876ffd)">
     <use xlink:href="#mf379736dc7" x="0" y="288" style="fill: #471365; stroke: #471365"/>
    </g>
   </g>
   <g id="PathCollection_2">
    <defs>
     <path id="ma77d92513a" d="M 120.012632 -41.96 
L 132.185263 -41.96 
L 144.357895 -41.96 
L 156.530526 -41.96 
L 161.86571 -41.96 
L 168.703158 -44.016394 
L 180.875789 -46.821424 
L 193.048421 -48.912569 
L 205.221053 -50.575454 
L 217.393684 -51.918854 
L 229.566316 -53.006161 
L 241.738947 -53.906495 
L 244.994718 -54.132632 
L 253.911579 -55.314545 
L 266.084211 -56.940928 
L 278.256842 -58.843457 
L 290.429474 -61.296569 
L 302.602105 -64.536659 
L 307.431853 -66.305263 
L 314.774737 -70.788777 
L 326.04522 -78.477895 
L 326.947368 -79.340042 
L 337.337493 -90.650526 
L 339.12 -92.760696 
L 339.12 -102.823158 
L 339.12 -113.105209 
L 332.295606 -102.823158 
L 326.947368 -95.915294 
L 321.921103 -90.650526 
L 314.774737 -83.990541 
L 308.295832 -78.477895 
L 302.602105 -75.608118 
L 290.429474 -70.897319 
L 278.256842 -66.702519 
L 276.639289 -66.305263 
L 266.084211 -65.372303 
L 253.911579 -64.610971 
L 241.738947 -63.880987 
L 229.566316 -63.009893 
L 217.393684 -61.927326 
L 205.221053 -60.623535 
L 193.048421 -59.076807 
L 180.875789 -56.835577 
L 176.702288 -66.305263 
L 180.875789 -69.475746 
L 190.853448 -78.477895 
L 193.048421 -81.683202 
L 201.638431 -90.650526 
L 205.221053 -97.743534 
L 214.764654 -102.823158 
L 217.393684 -103.80535 
L 229.566316 -103.313263 
L 234.788122 -102.823158 
L 241.738947 -102.191622 
L 253.911579 -102.080293 
L 258.647953 -102.823158 
L 266.084211 -103.747757 
L 278.256842 -107.408248 
L 290.429474 -114.052861 
L 291.665743 -114.995789 
L 302.602105 -121.109787 
L 312.331692 -127.168421 
L 314.774737 -128.237303 
L 326.947368 -130.920997 
L 338.977611 -127.168421 
L 339.12 -126.754227 
L 339.12 -127.168421 
L 339.12 -139.341053 
L 339.12 -145.92561 
L 326.947368 -147.924349 
L 314.774737 -145.651914 
L 302.602105 -140.996086 
L 298.646267 -139.341053 
L 290.429474 -135.609647 
L 278.256842 -131.262565 
L 266.084211 -128.792716 
L 253.911579 -128.438353 
L 241.738947 -130.13535 
L 229.566316 -133.791625 
L 218.11618 -139.341053 
L 217.393684 -139.633876 
L 205.221053 -145.70652 
L 195.952822 -151.513684 
L 193.048421 -152.986242 
L 180.875789 -159.264365 
L 172.003412 -163.686316 
L 168.703158 -165.049943 
L 156.530526 -168.911889 
L 144.357895 -170.933107 
L 132.185263 -170.815952 
L 120.012632 -168.059825 
L 111.390637 -163.686316 
L 107.84 -156.718723 
L 107.84 -151.513684 
L 107.84 -149.706801 
L 118.216538 -139.341053 
L 120.012632 -138.220813 
L 132.185263 -131.922965 
L 141.481572 -127.168421 
L 144.357895 -125.476505 
L 156.530526 -118.632924 
L 162.434515 -114.995789 
L 168.703158 -107.570908 
L 172.712652 -102.823158 
L 173.72752 -90.650526 
L 168.703158 -82.574005 
L 166.550143 -78.477895 
L 156.530526 -70.181788 
L 151.642463 -66.305263 
L 144.357895 -61.658227 
L 132.185263 -55.211019 
L 130.330476 -54.132632 
L 120.012632 -42.641658 
L 119.341351 -41.96 
z
M 161.338644 -54.132632 
L 168.703158 -56.219691 
L 175.781681 -54.132632 
L 168.703158 -53.708475 
z
M 137.783527 -139.341053 
L 132.185263 -143.057577 
L 120.851219 -151.513684 
L 132.185263 -159.166924 
L 144.357895 -159.223399 
L 156.530526 -155.762788 
L 166.549851 -151.513684 
L 168.703158 -148.881901 
L 180.148248 -139.341053 
L 168.703158 -131.336726 
L 156.530526 -133.776363 
L 144.357895 -136.976188 
z
M 302.602105 -210.148354 
L 314.774737 -209.641872 
L 322.383948 -212.376842 
L 326.947368 -214.701826 
L 334.015828 -224.549474 
L 337.786529 -236.722105 
L 338.731422 -248.894737 
L 337.426211 -261.067368 
L 327.092426 -273.24 
L 326.947368 -273.24 
L 314.774737 -273.24 
L 302.602105 -273.24 
L 290.429474 -273.24 
L 278.256842 -273.24 
L 266.084211 -273.24 
L 253.911579 -273.24 
L 241.738947 -273.24 
L 229.566316 -273.24 
L 217.393684 -273.24 
L 205.221053 -273.24 
L 193.048421 -273.24 
L 180.875789 -273.24 
L 168.703158 -273.24 
L 156.530526 -273.24 
L 144.357895 -273.24 
L 132.185263 -273.24 
L 120.012632 -273.24 
L 107.84 -273.24 
L 107.84 -269.443311 
L 110.720596 -261.067368 
L 120.012632 -256.204112 
L 132.185263 -250.854555 
L 137.654775 -248.894737 
L 144.357895 -246.757589 
L 156.530526 -243.898822 
L 168.703158 -241.67753 
L 180.875789 -239.892061 
L 193.048421 -238.324175 
L 205.106403 -236.722105 
L 205.221053 -236.708376 
L 217.393684 -235.239194 
L 229.566316 -233.373418 
L 241.738947 -230.727411 
L 253.911579 -226.818207 
L 259.136832 -224.549474 
L 266.084211 -222.271356 
L 278.256842 -217.808939 
L 290.429474 -213.261932 
L 293.580262 -212.376842 
z
M 300.519522 -236.722105 
L 293.263557 -248.894737 
L 302.602105 -252.044971 
L 307.865657 -248.894737 
L 304.894199 -236.722105 
L 302.602105 -236.116632 
z
M 144.048539 -261.067368 
L 144.357895 -261.232532 
L 156.530526 -262.490201 
L 168.703158 -261.63372 
L 173.149819 -261.067368 
L 168.703158 -260.513034 
L 156.530526 -260.132621 
L 144.357895 -261.002541 
z
" style="stroke: #463480"/>
    </defs>
    <g clip-path="url(#p2a20876ffd)">
     <use xlink:href="#ma77d92513a" x="0" y="288" style="fill: #463480; stroke: #463480"/>
    </g>
   </g>
   <g id="PathCollection_3">
    <defs>
     <path id="m3511750937" d="M 120.012632 -42.641658 
L 130.330476 -54.132632 
L 132.185263 -55.211019 
L 144.357895 -61.658227 
L 151.642463 -66.305263 
L 156.530526 -70.181788 
L 166.550143 -78.477895 
L 168.703158 -82.574005 
L 173.72752 -90.650526 
L 172.712652 -102.823158 
L 168.703158 -107.570908 
L 162.434515 -114.995789 
L 156.530526 -118.632924 
L 144.357895 -125.476505 
L 141.481572 -127.168421 
L 132.185263 -131.922965 
L 120.012632 -138.220813 
L 118.216538 -139.341053 
L 107.84 -149.706801 
L 107.84 -139.341053 
L 107.84 -138.352942 
L 120.012632 -130.660289 
L 126.051969 -127.168421 
L 132.185263 -123.160617 
L 144.357895 -115.177616 
L 144.644957 -114.995789 
L 155.534172 -102.823158 
L 156.530526 -96.262862 
L 157.502934 -90.650526 
L 156.530526 -88.93193 
L 151.338058 -78.477895 
L 144.357895 -72.665026 
L 136.723889 -66.305263 
L 132.185263 -63.472729 
L 120.012632 -56.03794 
L 117.15056 -54.132632 
L 107.84 -44.726052 
L 107.84 -41.96 
L 119.341351 -41.96 
z
M 168.703158 -41.96 
L 180.875789 -41.96 
L 190.917886 -41.96 
L 193.048421 -42.448262 
L 205.221053 -44.741158 
L 217.393684 -46.494138 
L 229.566316 -47.88241 
L 241.738947 -49.035027 
L 253.911579 -50.085612 
L 266.084211 -51.193133 
L 278.256842 -52.543575 
L 288.966898 -54.132632 
L 290.429474 -54.485503 
L 302.602105 -58.387654 
L 314.774737 -63.133144 
L 321.268223 -66.305263 
L 326.947368 -70.488361 
L 336.520522 -78.477895 
L 339.12 -81.251601 
L 339.12 -90.650526 
L 339.12 -92.760696 
L 337.337493 -90.650526 
L 326.947368 -79.340042 
L 326.04522 -78.477895 
L 314.774737 -70.788777 
L 307.431853 -66.305263 
L 302.602105 -64.536659 
L 290.429474 -61.296569 
L 278.256842 -58.843457 
L 266.084211 -56.940928 
L 253.911579 -55.314545 
L 244.994718 -54.132632 
L 241.738947 -53.906495 
L 229.566316 -53.006161 
L 217.393684 -51.918854 
L 205.221053 -50.575454 
L 193.048421 -48.912569 
L 180.875789 -46.821424 
L 168.703158 -44.016394 
L 161.86571 -41.96 
z
M 229.566316 -133.791625 
L 241.738947 -130.13535 
L 253.911579 -128.438353 
L 266.084211 -128.792716 
L 278.256842 -131.262565 
L 290.429474 -135.609647 
L 298.646267 -139.341053 
L 302.602105 -140.996086 
L 314.774737 -145.651914 
L 326.947368 -147.924349 
L 339.12 -145.92561 
L 339.12 -151.513684 
L 339.12 -161.817379 
L 332.223448 -163.686316 
L 326.947368 -166.869648 
L 314.774737 -164.738948 
L 313.448634 -163.686316 
L 302.602105 -159.70335 
L 290.429474 -153.87078 
L 284.72167 -151.513684 
L 278.256842 -149.434969 
L 266.084211 -147.19045 
L 253.911579 -146.972931 
L 241.738947 -148.729424 
L 232.065785 -151.513684 
L 229.566316 -152.262001 
L 217.393684 -157.089372 
L 205.221053 -162.435978 
L 202.628056 -163.686316 
L 193.048421 -168.349777 
L 180.875789 -173.376633 
L 173.39755 -175.858947 
L 168.703158 -177.598158 
L 156.530526 -180.424583 
L 144.357895 -181.241447 
L 132.185263 -180.150929 
L 120.012632 -177.021503 
L 117.547625 -175.858947 
L 107.84 -170.998818 
L 107.84 -163.686316 
L 107.84 -156.718723 
L 111.390637 -163.686316 
L 120.012632 -168.059825 
L 132.185263 -170.815952 
L 144.357895 -170.933107 
L 156.530526 -168.911889 
L 168.703158 -165.049943 
L 172.003412 -163.686316 
L 180.875789 -159.264365 
L 193.048421 -152.986242 
L 195.952822 -151.513684 
L 205.221053 -145.70652 
L 217.393684 -139.633876 
L 218.11618 -139.341053 
z
M 290.429474 -196.040003 
L 302.602105 -191.680705 
L 314.774737 -189.411592 
L 326.947368 -191.936354 
L 334.557627 -200.204211 
L 339.12 -204.75695 
L 339.12 -212.376842 
L 339.12 -224.549474 
L 339.12 -236.722105 
L 339.12 -248.894737 
L 339.12 -261.067368 
L 339.12 -273.24 
L 327.092426 -273.24 
L 337.426211 -261.067368 
L 338.731422 -248.894737 
L 337.786529 -236.722105 
L 334.015828 -224.549474 
L 326.947368 -214.701826 
L 322.383948 -212.376842 
L 314.774737 -209.641872 
L 302.602105 -210.148354 
L 293.580262 -212.376842 
L 290.429474 -213.261932 
L 278.256842 -217.808939 
L 266.084211 -222.271356 
L 259.136832 -224.549474 
L 253.911579 -226.818207 
L 241.738947 -230.727411 
L 229.566316 -233.373418 
L 217.393684 -235.239194 
L 205.221053 -236.708376 
L 205.106403 -236.722105 
L 193.048421 -238.324175 
L 180.875789 -239.892061 
L 168.703158 -241.67753 
L 156.530526 -243.898822 
L 144.357895 -246.757589 
L 137.654775 -248.894737 
L 132.185263 -250.854555 
L 120.012632 -256.204112 
L 110.720596 -261.067368 
L 107.84 -269.443311 
L 107.84 -261.067368 
L 107.84 -253.440058 
L 115.615412 -248.894737 
L 120.012632 -246.334022 
L 132.185263 -240.682736 
L 142.394729 -236.722105 
L 144.357895 -235.719743 
L 156.530526 -231.202004 
L 168.703158 -227.817471 
L 180.875789 -225.192072 
L 184.489046 -224.549474 
L 193.048421 -222.704145 
L 205.221053 -220.543107 
L 217.393684 -218.433759 
L 229.566316 -216.0481 
L 241.738947 -213.131378 
L 244.299435 -212.376842 
L 253.911579 -209.434042 
L 266.084211 -205.378002 
L 278.256842 -201.118604 
L 280.928518 -200.204211 
z
" style="stroke: #3b528b"/>
    </defs>
    <g clip-path="url(#p2a20876ffd)">
     <use xlink:href="#m3511750937" x="0" y="288" style="fill: #3b528b; stroke: #3b528b"/>
    </g>
   </g>
   <g id="PathCollection_4">
    <defs>
     <path id="m37f2a7ec37" d="M 117.15056 -54.132632 
L 120.012632 -56.03794 
L 132.185263 -63.472729 
L 136.723889 -66.305263 
L 144.357895 -72.665026 
L 151.338058 -78.477895 
L 156.530526 -88.93193 
L 157.502934 -90.650526 
L 156.530526 -96.262862 
L 155.534172 -102.823158 
L 144.644957 -114.995789 
L 144.357895 -115.177616 
L 132.185263 -123.160617 
L 126.051969 -127.168421 
L 120.012632 -130.660289 
L 107.84 -138.352942 
L 107.84 -131.490267 
L 114.403756 -127.168421 
L 120.012632 -123.113003 
L 131.702784 -114.995789 
L 132.185263 -114.441766 
L 142.624246 -102.823158 
L 144.357895 -93.369647 
L 144.911012 -90.650526 
L 144.357895 -89.602888 
L 139.093097 -78.477895 
L 132.185263 -72.56617 
L 125.12574 -66.305263 
L 120.012632 -62.994293 
L 107.84 -54.820534 
L 107.84 -54.132632 
L 107.84 -44.726052 
z
M 193.048421 -41.96 
L 205.221053 -41.96 
L 217.393684 -41.96 
L 223.637778 -41.96 
L 229.566316 -42.758659 
L 241.738947 -44.163558 
L 253.911579 -45.449126 
L 266.084211 -46.78558 
L 278.256842 -48.355021 
L 290.429474 -50.34719 
L 302.602105 -52.952085 
L 306.746669 -54.132632 
L 314.774737 -57.495942 
L 326.947368 -63.626896 
L 331.354061 -66.305263 
L 339.12 -72.949218 
L 339.12 -78.477895 
L 339.12 -81.251601 
L 336.520522 -78.477895 
L 326.947368 -70.488361 
L 321.268223 -66.305263 
L 314.774737 -63.133144 
L 302.602105 -58.387654 
L 290.429474 -54.485503 
L 288.966898 -54.132632 
L 278.256842 -52.543575 
L 266.084211 -51.193133 
L 253.911579 -50.085612 
L 241.738947 -49.035027 
L 229.566316 -47.88241 
L 217.393684 -46.494138 
L 205.221053 -44.741158 
L 193.048421 -42.448262 
L 190.917886 -41.96 
z
M 241.738947 -148.729424 
L 253.911579 -146.972931 
L 266.084211 -147.19045 
L 278.256842 -149.434969 
L 284.72167 -151.513684 
L 290.429474 -153.87078 
L 302.602105 -159.70335 
L 313.448634 -163.686316 
L 314.774737 -164.738948 
L 326.947368 -166.869648 
L 332.223448 -163.686316 
L 339.12 -161.817379 
L 339.12 -163.686316 
L 339.12 -175.858947 
L 339.12 -188.031579 
L 339.12 -200.204211 
L 339.12 -204.75695 
L 334.557627 -200.204211 
L 326.947368 -191.936354 
L 314.774737 -189.411592 
L 302.602105 -191.680705 
L 290.429474 -196.040003 
L 280.928518 -200.204211 
L 278.256842 -201.118604 
L 266.084211 -205.378002 
L 253.911579 -209.434042 
L 244.299435 -212.376842 
L 241.738947 -213.131378 
L 229.566316 -216.0481 
L 217.393684 -218.433759 
L 205.221053 -220.543107 
L 193.048421 -222.704145 
L 184.489046 -224.549474 
L 180.875789 -225.192072 
L 168.703158 -227.817471 
L 156.530526 -231.202004 
L 144.357895 -235.719743 
L 142.394729 -236.722105 
L 132.185263 -240.682736 
L 120.012632 -246.334022 
L 115.615412 -248.894737 
L 107.84 -253.440058 
L 107.84 -248.894737 
L 107.84 -244.833904 
L 120.012632 -237.426719 
L 121.441107 -236.722105 
L 132.185263 -229.361385 
L 141.27174 -224.549474 
L 144.357895 -221.39406 
L 156.530526 -213.612842 
L 159.789953 -212.376842 
L 168.703158 -201.295744 
L 174.639905 -200.204211 
L 168.703158 -199.657714 
L 156.530526 -197.625073 
L 144.357895 -194.660331 
L 132.185263 -190.424219 
L 127.693618 -188.031579 
L 120.012632 -185.629406 
L 107.84 -179.697456 
L 107.84 -175.858947 
L 107.84 -170.998818 
L 117.547625 -175.858947 
L 120.012632 -177.021503 
L 132.185263 -180.150929 
L 144.357895 -181.241447 
L 156.530526 -180.424583 
L 168.703158 -177.598158 
L 173.39755 -175.858947 
L 180.875789 -173.376633 
L 193.048421 -168.349777 
L 202.628056 -163.686316 
L 205.221053 -162.435978 
L 217.393684 -157.089372 
L 229.566316 -152.262001 
L 232.065785 -151.513684 
z
M 223.28168 -175.858947 
L 217.393684 -179.94364 
L 205.221053 -186.010222 
L 199.612329 -188.031579 
L 205.221053 -195.264842 
L 217.393684 -195.801061 
L 229.566316 -194.210123 
L 241.738947 -191.689316 
L 253.911579 -188.436639 
L 255.053952 -188.031579 
L 266.084211 -176.692901 
L 266.869411 -175.858947 
L 266.084211 -175.274108 
L 253.911579 -171.079582 
L 241.738947 -171.350439 
L 229.566316 -173.906184 
z
" style="stroke: #2f6c8e"/>
    </defs>
    <g clip-path="url(#p2a20876ffd)">
     <use xlink:href="#m37f2a7ec37" x="0" y="288" style="fill: #2f6c8e; stroke: #2f6c8e"/>
    </g>
   </g>
   <g id="PathCollection_5">
    <defs>
     <path id="md84db03f45" d="M 229.566316 -41.96 
L 241.738947 -41.96 
L 253.911579 -41.96 
L 262.711525 -41.96 
L 266.084211 -42.378027 
L 278.256842 -44.166466 
L 290.429474 -46.354914 
L 302.602105 -49.119321 
L 314.774737 -52.632469 
L 318.854172 -54.132632 
L 326.947368 -58.35304 
L 339.12 -65.776593 
L 339.12 -66.305263 
L 339.12 -72.949218 
L 331.354061 -66.305263 
L 326.947368 -63.626896 
L 314.774737 -57.495942 
L 306.746669 -54.132632 
L 302.602105 -52.952085 
L 290.429474 -50.34719 
L 278.256842 -48.355021 
L 266.084211 -46.78558 
L 253.911579 -45.449126 
L 241.738947 -44.163558 
L 229.566316 -42.758659 
L 223.637778 -41.96 
z
M 120.012632 -62.994293 
L 125.12574 -66.305263 
L 132.185263 -72.56617 
L 139.093097 -78.477895 
L 144.357895 -89.602888 
L 144.911012 -90.650526 
L 144.357895 -93.369647 
L 142.624246 -102.823158 
L 132.185263 -114.441766 
L 131.702784 -114.995789 
L 120.012632 -123.113003 
L 114.403756 -127.168421 
L 107.84 -131.490267 
L 107.84 -127.168421 
L 107.84 -124.592242 
L 120.012632 -115.577079 
L 120.849786 -114.995789 
L 131.522925 -102.823158 
L 132.185263 -99.573269 
L 134.167726 -90.650526 
L 132.185263 -86.6485 
L 128.522204 -78.477895 
L 120.012632 -70.843317 
L 115.265647 -66.305263 
L 107.84 -61.131714 
L 107.84 -54.820534 
z
M 229.566316 -173.906184 
L 241.738947 -171.350439 
L 253.911579 -171.079582 
L 266.084211 -175.274108 
L 266.869411 -175.858947 
L 266.084211 -176.692901 
L 255.053952 -188.031579 
L 253.911579 -188.436639 
L 241.738947 -191.689316 
L 229.566316 -194.210123 
L 217.393684 -195.801061 
L 205.221053 -195.264842 
L 199.612329 -188.031579 
L 205.221053 -186.010222 
L 217.393684 -179.94364 
L 223.28168 -175.858947 
z
M 120.012632 -185.629406 
L 127.693618 -188.031579 
L 132.185263 -190.424219 
L 144.357895 -194.660331 
L 156.530526 -197.625073 
L 168.703158 -199.657714 
L 174.639905 -200.204211 
L 168.703158 -201.295744 
L 159.789953 -212.376842 
L 156.530526 -213.612842 
L 144.357895 -221.39406 
L 141.27174 -224.549474 
L 132.185263 -229.361385 
L 121.441107 -236.722105 
L 120.012632 -237.426719 
L 107.84 -244.833904 
L 107.84 -236.722105 
L 107.84 -236.516373 
L 120.012632 -225.757432 
L 121.745909 -224.549474 
L 129.513809 -212.376842 
L 125.129297 -200.204211 
L 120.012632 -197.150324 
L 108.110458 -188.031579 
L 107.84 -187.897249 
L 107.84 -179.697456 
z
" style="stroke: #25848e"/>
    </defs>
    <g clip-path="url(#p2a20876ffd)">
     <use xlink:href="#md84db03f45" x="0" y="288" style="fill: #25848e; stroke: #25848e"/>
    </g>
   </g>
   <g id="PathCollection_6">
    <defs>
     <path id="mb7ec8fcf35" d="M 266.084211 -41.96 
L 278.256842 -41.96 
L 288.290947 -41.96 
L 290.429474 -42.362638 
L 302.602105 -45.286557 
L 314.774737 -48.913417 
L 326.947368 -53.402965 
L 328.555085 -54.132632 
L 339.12 -60.741643 
L 339.12 -65.776593 
L 326.947368 -58.35304 
L 318.854172 -54.132632 
L 314.774737 -52.632469 
L 302.602105 -49.119321 
L 290.429474 -46.354914 
L 278.256842 -44.166466 
L 266.084211 -42.378027 
L 262.711525 -41.96 
z
M 115.265647 -66.305263 
L 120.012632 -70.843317 
L 128.522204 -78.477895 
L 132.185263 -86.6485 
L 134.167726 -90.650526 
L 132.185263 -99.573269 
L 131.522925 -102.823158 
L 120.849786 -114.995789 
L 120.012632 -115.577079 
L 107.84 -124.592242 
L 107.84 -117.634089 
L 111.384813 -114.995789 
L 120.012632 -104.778033 
L 121.73995 -102.823158 
L 124.521707 -90.650526 
L 120.012632 -80.890199 
L 119.00082 -78.477895 
L 107.84 -67.781692 
L 107.84 -66.305263 
L 107.84 -61.131714 
z
M 108.110458 -188.031579 
L 120.012632 -197.150324 
L 125.129297 -200.204211 
L 129.513809 -212.376842 
L 121.745909 -224.549474 
L 120.012632 -225.757432 
L 107.84 -236.516373 
L 107.84 -225.015469 
L 108.365217 -224.549474 
L 113.670452 -212.376842 
L 108.93272 -200.204211 
L 107.84 -199.343843 
L 107.84 -188.031579 
L 107.84 -187.897249 
z
" style="stroke: #1e9c89"/>
    </defs>
    <g clip-path="url(#p2a20876ffd)">
     <use xlink:href="#mb7ec8fcf35" x="0" y="288" style="fill: #1e9c89; stroke: #1e9c89"/>
    </g>
   </g>
   <g id="PathCollection_7">
    <defs>
     <path id="m5bd3850899" d="M 290.429474 -41.96 
L 302.602105 -41.96 
L 304.206981 -41.96 
L 314.774737 -45.194366 
L 326.947368 -49.750049 
L 336.603764 -54.132632 
L 339.12 -55.706694 
L 339.12 -60.741643 
L 328.555085 -54.132632 
L 326.947368 -53.402965 
L 314.774737 -48.913417 
L 302.602105 -45.286557 
L 290.429474 -42.362638 
L 288.290947 -41.96 
z
M 119.00082 -78.477895 
L 120.012632 -80.890199 
L 124.521707 -90.650526 
L 121.73995 -102.823158 
L 120.012632 -104.778033 
L 111.384813 -114.995789 
L 107.84 -117.634089 
L 107.84 -114.995789 
L 107.84 -108.664982 
L 112.834187 -102.823158 
L 115.607015 -90.650526 
L 110.454326 -78.477895 
L 107.84 -75.972402 
L 107.84 -67.781692 
z
M 108.93272 -200.204211 
L 113.670452 -212.376842 
L 108.365217 -224.549474 
L 107.84 -225.015469 
L 107.84 -224.549474 
L 107.84 -212.376842 
L 107.84 -200.204211 
L 107.84 -199.343843 
z
" style="stroke: #2fb47c"/>
    </defs>
    <g clip-path="url(#p2a20876ffd)">
     <use xlink:href="#m5bd3850899" x="0" y="288" style="fill: #2fb47c; stroke: #2fb47c"/>
    </g>
   </g>
   <g id="PathCollection_8">
    <defs>
     <path id="m296db65f19" d="M 314.774737 -41.96 
L 316.030912 -41.96 
L 326.947368 -46.097133 
L 339.12 -51.637056 
L 339.12 -54.132632 
L 339.12 -55.706694 
L 336.603764 -54.132632 
L 326.947368 -49.750049 
L 314.774737 -45.194366 
L 304.206981 -41.96 
z
M 110.454326 -78.477895 
L 115.607015 -90.650526 
L 112.834187 -102.823158 
L 107.84 -108.664982 
L 107.84 -102.823158 
L 107.84 -90.650526 
L 107.84 -78.477895 
L 107.84 -75.972402 
z
" style="stroke: #5ec962"/>
    </defs>
    <g clip-path="url(#p2a20876ffd)">
     <use xlink:href="#m296db65f19" x="0" y="288" style="fill: #5ec962; stroke: #5ec962"/>
    </g>
   </g>
   <g id="PathCollection_9">
    <defs>
     <path id="mf008842084" d="M 326.947368 -42.444217 
L 339.12 -48.006457 
L 339.12 -51.637056 
L 326.947368 -46.097133 
L 316.030912 -41.96 
L 325.669689 -41.96 
z
" style="stroke: #9bd93c"/>
    </defs>
    <g clip-path="url(#p2a20876ffd)">
     <use xlink:href="#mf008842084" x="0" y="288" style="fill: #9bd93c; stroke: #9bd93c"/>
    </g>
   </g>
   <g id="PathCollection_10">
    <defs>
     <path id="m9fca76e9df" d="M 326.947368 -41.96 
L 333.835851 -41.96 
L 339.12 -44.375857 
L 339.12 -48.006457 
L 326.947368 -42.444217 
L 325.669689 -41.96 
z
" style="stroke: #dfe318"/>
    </defs>
    <g clip-path="url(#p2a20876ffd)">
     <use xlink:href="#m9fca76e9df" x="0" y="288" style="fill: #dfe318; stroke: #dfe318"/>
    </g>
   </g>
   <g id="matplotlib.axis_1">
    <g id="xtick_1">
     <g id="line2d_1">
      <defs>
       <path id="mf2f5bfe11e" d="M 0 0 
L 0 3.5 
" style="stroke: #000000; stroke-width: 0.8"/>
      </defs>
      <g>
       <use xlink:href="#mf2f5bfe11e" x="107.84" y="246.04" style="stroke: #000000; stroke-width: 0.8"/>
      </g>
     </g>
     <g id="text_1">
      <!-- −5 -->
      <g transform="translate(100.468906 260.638438) scale(0.1 -0.1)">
       <defs>
        <path id="DejaVuSans-2212" d="M 678 2272 
L 4684 2272 
L 4684 1741 
L 678 1741 
L 678 2272 
z
" transform="scale(0.015625)"/>
        <path id="DejaVuSans-35" d="M 691 4666 
L 3169 4666 
L 3169 4134 
L 1269 4134 
L 1269 2991 
Q 1406 3038 1543 3061 
Q 1681 3084 1819 3084 
Q 2600 3084 3056 2656 
Q 3513 2228 3513 1497 
Q 3513 744 3044 326 
Q 2575 -91 1722 -91 
Q 1428 -91 1123 -41 
Q 819 9 494 109 
L 494 744 
Q 775 591 1075 516 
Q 1375 441 1709 441 
Q 2250 441 2565 725 
Q 2881 1009 2881 1497 
Q 2881 1984 2565 2268 
Q 2250 2553 1709 2553 
Q 1456 2553 1204 2497 
Q 953 2441 691 2322 
L 691 4666 
z
" transform="scale(0.015625)"/>
       </defs>
       <use xlink:href="#DejaVuSans-2212"/>
       <use xlink:href="#DejaVuSans-35" x="83.789062"/>
      </g>
     </g>
    </g>
    <g id="xtick_2">
     <g id="line2d_2">
      <g>
       <use xlink:href="#mf2f5bfe11e" x="223.48" y="246.04" style="stroke: #000000; stroke-width: 0.8"/>
      </g>
     </g>
     <g id="text_2">
      <!-- 0 -->
      <g transform="translate(220.29875 260.638438) scale(0.1 -0.1)">
       <defs>
        <path id="DejaVuSans-30" d="M 2034 4250 
Q 1547 4250 1301 3770 
Q 1056 3291 1056 2328 
Q 1056 1369 1301 889 
Q 1547 409 2034 409 
Q 2525 409 2770 889 
Q 3016 1369 3016 2328 
Q 3016 3291 2770 3770 
Q 2525 4250 2034 4250 
z
M 2034 4750 
Q 2819 4750 3233 4129 
Q 3647 3509 3647 2328 
Q 3647 1150 3233 529 
Q 2819 -91 2034 -91 
Q 1250 -91 836 529 
Q 422 1150 422 2328 
Q 422 3509 836 4129 
Q 1250 4750 2034 4750 
z
" transform="scale(0.015625)"/>
       </defs>
       <use xlink:href="#DejaVuSans-30"/>
      </g>
     </g>
    </g>
    <g id="xtick_3">
     <g id="line2d_3">
      <g>
       <use xlink:href="#mf2f5bfe11e" x="339.12" y="246.04" style="stroke: #000000; stroke-width: 0.8"/>
      </g>
     </g>
     <g id="text_3">
      <!-- 5 -->
      <g transform="translate(335.93875 260.638438) scale(0.1 -0.1)">
       <use xlink:href="#DejaVuSans-35"/>
      </g>
     </g>
    </g>
    <g id="text_4">
     <!-- $x$ -->
     <g transform="translate(220.48 274.316563) scale(0.1 -0.1)">
      <defs>
       <path id="DejaVuSans-Oblique-78" d="M 3841 3500 
L 2234 1784 
L 3219 0 
L 2559 0 
L 1819 1388 
L 531 0 
L -166 0 
L 1556 1844 
L 641 3500 
L 1300 3500 
L 1972 2234 
L 3144 3500 
L 3841 3500 
z
" transform="scale(0.015625)"/>
      </defs>
      <use xlink:href="#DejaVuSans-Oblique-78" transform="translate(0 0.3125)"/>
     </g>
    </g>
   </g>
   <g id="matplotlib.axis_2">
    <g id="ytick_1">
     <g id="line2d_4">
      <defs>
       <path id="m6beefe9feb" d="M 0 0 
L -3.5 0 
" style="stroke: #000000; stroke-width: 0.8"/>
      </defs>
      <g>
       <use xlink:href="#m6beefe9feb" x="107.84" y="246.04" style="stroke: #000000; stroke-width: 0.8"/>
      </g>
     </g>
     <g id="text_5">
      <!-- −5 -->
      <g transform="translate(86.097812 249.839219) scale(0.1 -0.1)">
       <use xlink:href="#DejaVuSans-2212"/>
       <use xlink:href="#DejaVuSans-35" x="83.789062"/>
      </g>
     </g>
    </g>
    <g id="ytick_2">
     <g id="line2d_5">
      <g>
       <use xlink:href="#m6beefe9feb" x="107.84" y="130.4" style="stroke: #000000; stroke-width: 0.8"/>
      </g>
     </g>
     <g id="text_6">
      <!-- 0 -->
      <g transform="translate(94.4775 134.199219) scale(0.1 -0.1)">
       <use xlink:href="#DejaVuSans-30"/>
      </g>
     </g>
    </g>
    <g id="ytick_3">
     <g id="line2d_6">
      <g>
       <use xlink:href="#m6beefe9feb" x="107.84" y="14.76" style="stroke: #000000; stroke-width: 0.8"/>
      </g>
     </g>
     <g id="text_7">
      <!-- 5 -->
      <g transform="translate(94.4775 18.559219) scale(0.1 -0.1)">
       <use xlink:href="#DejaVuSans-35"/>
      </g>
     </g>
    </g>
    <g id="text_8">
     <!-- $y$ -->
     <g transform="translate(79.997812 133.4) rotate(-90) scale(0.1 -0.1)">
      <defs>
       <path id="DejaVuSans-Oblique-79" d="M 1588 -325 
Q 1188 -997 936 -1164 
Q 684 -1331 294 -1331 
L -159 -1331 
L -63 -850 
L 269 -850 
Q 509 -850 678 -719 
Q 847 -588 1056 -206 
L 1234 128 
L 459 3500 
L 1069 3500 
L 1650 819 
L 3256 3500 
L 3859 3500 
L 1588 -325 
z
" transform="scale(0.015625)"/>
      </defs>
      <use xlink:href="#DejaVuSans-Oblique-79" transform="translate(0 0.3125)"/>
     </g>
    </g>
   </g>
   <g id="line2d_7">
    <defs>
     <path id="m03f9827ce1" d="M 0 3 
C 0.795609 3 1.55874 2.683901 2.12132 2.12132 
C 2.683901 1.55874 3 0.795609 3 0 
C 3 -0.795609 2.683901 -1.55874 2.12132 -2.12132 
C 1.55874 -2.683901 0.795609 -3 0 -3 
C -0.795609 -3 -1.55874 -2.683901 -2.12132 -2.12132 
C -2.683901 -1.55874 -3 -0.795609 -3 0 
C -3 0.795609 -2.683901 1.55874 -2.12132 2.12132 
C -1.55874 2.683901 -0.795609 3 0 3 
z
" style="stroke: #ff7f0e"/>
    </defs>
    <g clip-path="url(#p2a20876ffd)">
     <use xlink:href="#m03f9827ce1" x="120.012632" y="246.04" style="fill: #ff7f0e; stroke: #ff7f0e"/>
     <use xlink:href="#m03f9827ce1" x="132.185263" y="136.486316" style="fill: #ff7f0e; stroke: #ff7f0e"/>
     <use xlink:href="#m03f9827ce1" x="193.048421" y="233.867368" style="fill: #ff7f0e; stroke: #ff7f0e"/>
     <use xlink:href="#m03f9827ce1" x="326.947368" y="14.76" style="fill: #ff7f0e; stroke: #ff7f0e"/>
     <use xlink:href="#m03f9827ce1" x="326.947368" y="63.450526" style="fill: #ff7f0e; stroke: #ff7f0e"/>
     <use xlink:href="#m03f9827ce1" x="205.221053" y="209.522105" style="fill: #ff7f0e; stroke: #ff7f0e"/>
     <use xlink:href="#m03f9827ce1" x="339.12" y="160.831579" style="fill: #ff7f0e; stroke: #ff7f0e"/>
     <use xlink:href="#m03f9827ce1" x="205.221053" y="14.76" style="fill: #ff7f0e; stroke: #ff7f0e"/>
     <use xlink:href="#m03f9827ce1" x="205.221053" y="197.349474" style="fill: #ff7f0e; stroke: #ff7f0e"/>
     <use xlink:href="#m03f9827ce1" x="266.084211" y="209.522105" style="fill: #ff7f0e; stroke: #ff7f0e"/>
     <use xlink:href="#m03f9827ce1" x="290.429474" y="221.694737" style="fill: #ff7f0e; stroke: #ff7f0e"/>
     <use xlink:href="#m03f9827ce1" x="107.84" y="14.76" style="fill: #ff7f0e; stroke: #ff7f0e"/>
     <use xlink:href="#m03f9827ce1" x="193.048421" y="148.658947" style="fill: #ff7f0e; stroke: #ff7f0e"/>
     <use xlink:href="#m03f9827ce1" x="326.947368" y="160.831579" style="fill: #ff7f0e; stroke: #ff7f0e"/>
     <use xlink:href="#m03f9827ce1" x="314.774737" y="197.349474" style="fill: #ff7f0e; stroke: #ff7f0e"/>
     <use xlink:href="#m03f9827ce1" x="120.012632" y="136.486316" style="fill: #ff7f0e; stroke: #ff7f0e"/>
     <use xlink:href="#m03f9827ce1" x="156.530526" y="39.105263" style="fill: #ff7f0e; stroke: #ff7f0e"/>
     <use xlink:href="#m03f9827ce1" x="314.774737" y="185.176842" style="fill: #ff7f0e; stroke: #ff7f0e"/>
     <use xlink:href="#m03f9827ce1" x="278.256842" y="51.277895" style="fill: #ff7f0e; stroke: #ff7f0e"/>
     <use xlink:href="#m03f9827ce1" x="144.357895" y="136.486316" style="fill: #ff7f0e; stroke: #ff7f0e"/>
    </g>
   </g>
   <g id="patch_3">
    <path d="M 107.84 246.04 
L 107.84 14.76 
" style="fill: none; stroke: #000000; stroke-width: 0.8; stroke-linejoin: miter; stroke-linecap: square"/>
   </g>
   <g id="patch_4">
    <path d="M 339.12 246.04 
L 339.12 14.76 
" style="fill: none; stroke: #000000; stroke-width: 0.8; stroke-linejoin: miter; stroke-linecap: square"/>
   </g>
   <g id="patch_5">
    <path d="M 107.84 246.04 
L 339.12 246.04 
" style="fill: none; stroke: #000000; stroke-width: 0.8; stroke-linejoin: miter; stroke-linecap: square"/>
   </g>
   <g id="patch_6">
    <path d="M 107.84 14.76 
L 339.12 14.76 
" style="fill: none; stroke: #000000; stroke-width: 0.8; stroke-linejoin: miter; stroke-linecap: square"/>
   </g>
  </g>
  <g id="axes_2">
   <g id="patch_7">
    <path d="M 359.64 246.04 
L 371.204 246.04 
L 371.204 14.76 
L 359.64 14.76 
z
" style="fill: #ffffff"/>
   </g>
   <g id="QuadMesh_1">
    <path d="M 359.64 246.04 
L 371.204 246.04 
L 371.204 222.912 
L 359.64 222.912 
L 359.64 246.04 
" clip-path="url(#p25899a9863)" style="fill: #471365"/>
    <path d="M 359.64 222.912 
L 371.204 222.912 
L 371.204 199.784 
L 359.64 199.784 
L 359.64 222.912 
" clip-path="url(#p25899a9863)" style="fill: #463480"/>
    <path d="M 359.64 199.784 
L 371.204 199.784 
L 371.204 176.656 
L 359.64 176.656 
L 359.64 199.784 
" clip-path="url(#p25899a9863)" style="fill: #3b528b"/>
    <path d="M 359.64 176.656 
L 371.204 176.656 
L 371.204 153.528 
L 359.64 153.528 
L 359.64 176.656 
" clip-path="url(#p25899a9863)" style="fill: #2f6c8e"/>
    <path d="M 359.64 153.528 
L 371.204 153.528 
L 371.204 130.4 
L 359.64 130.4 
L 359.64 153.528 
" clip-path="url(#p25899a9863)" style="fill: #25848e"/>
    <path d="M 359.64 130.4 
L 371.204 130.4 
L 371.204 107.272 
L 359.64 107.272 
L 359.64 130.4 
" clip-path="url(#p25899a9863)" style="fill: #1e9c89"/>
    <path d="M 359.64 107.272 
L 371.204 107.272 
L 371.204 84.144 
L 359.64 84.144 
L 359.64 107.272 
" clip-path="url(#p25899a9863)" style="fill: #2fb47c"/>
    <path d="M 359.64 84.144 
L 371.204 84.144 
L 371.204 61.016 
L 359.64 61.016 
L 359.64 84.144 
" clip-path="url(#p25899a9863)" style="fill: #5ec962"/>
    <path d="M 359.64 61.016 
L 371.204 61.016 
L 371.204 37.888 
L 359.64 37.888 
L 359.64 61.016 
" clip-path="url(#p25899a9863)" style="fill: #9bd93c"/>
    <path d="M 359.64 37.888 
L 371.204 37.888 
L 371.204 14.76 
L 359.64 14.76 
L 359.64 37.888 
" clip-path="url(#p25899a9863)" style="fill: #dfe318"/>
   </g>
   <g id="matplotlib.axis_3"/>
   <g id="matplotlib.axis_4">
    <g id="ytick_4">
     <g id="line2d_8">
      <defs>
       <path id="m35e28222d7" d="M 0 0 
L 3.5 0 
" style="stroke: #000000; stroke-width: 0.8"/>
      </defs>
      <g>
       <use xlink:href="#m35e28222d7" x="371.204" y="246.04" style="stroke: #000000; stroke-width: 0.8"/>
      </g>
     </g>
     <g id="text_9">
      <!-- 6 -->
      <g transform="translate(378.204 249.839219) scale(0.1 -0.1)">
       <defs>
        <path id="DejaVuSans-36" d="M 2113 2584 
Q 1688 2584 1439 2293 
Q 1191 2003 1191 1497 
Q 1191 994 1439 701 
Q 1688 409 2113 409 
Q 2538 409 2786 701 
Q 3034 994 3034 1497 
Q 3034 2003 2786 2293 
Q 2538 2584 2113 2584 
z
M 3366 4563 
L 3366 3988 
Q 3128 4100 2886 4159 
Q 2644 4219 2406 4219 
Q 1781 4219 1451 3797 
Q 1122 3375 1075 2522 
Q 1259 2794 1537 2939 
Q 1816 3084 2150 3084 
Q 2853 3084 3261 2657 
Q 3669 2231 3669 1497 
Q 3669 778 3244 343 
Q 2819 -91 2113 -91 
Q 1303 -91 875 529 
Q 447 1150 447 2328 
Q 447 3434 972 4092 
Q 1497 4750 2381 4750 
Q 2619 4750 2861 4703 
Q 3103 4656 3366 4563 
z
" transform="scale(0.015625)"/>
       </defs>
       <use xlink:href="#DejaVuSans-36"/>
      </g>
     </g>
    </g>
    <g id="ytick_5">
     <g id="line2d_9">
      <g>
       <use xlink:href="#m35e28222d7" x="371.204" y="199.784" style="stroke: #000000; stroke-width: 0.8"/>
      </g>
     </g>
     <g id="text_10">
      <!-- 8 -->
      <g transform="translate(378.204 203.583219) scale(0.1 -0.1)">
       <defs>
        <path id="DejaVuSans-38" d="M 2034 2216 
Q 1584 2216 1326 1975 
Q 1069 1734 1069 1313 
Q 1069 891 1326 650 
Q 1584 409 2034 409 
Q 2484 409 2743 651 
Q 3003 894 3003 1313 
Q 3003 1734 2745 1975 
Q 2488 2216 2034 2216 
z
M 1403 2484 
Q 997 2584 770 2862 
Q 544 3141 544 3541 
Q 544 4100 942 4425 
Q 1341 4750 2034 4750 
Q 2731 4750 3128 4425 
Q 3525 4100 3525 3541 
Q 3525 3141 3298 2862 
Q 3072 2584 2669 2484 
Q 3125 2378 3379 2068 
Q 3634 1759 3634 1313 
Q 3634 634 3220 271 
Q 2806 -91 2034 -91 
Q 1263 -91 848 271 
Q 434 634 434 1313 
Q 434 1759 690 2068 
Q 947 2378 1403 2484 
z
M 1172 3481 
Q 1172 3119 1398 2916 
Q 1625 2713 2034 2713 
Q 2441 2713 2670 2916 
Q 2900 3119 2900 3481 
Q 2900 3844 2670 4047 
Q 2441 4250 2034 4250 
Q 1625 4250 1398 4047 
Q 1172 3844 1172 3481 
z
" transform="scale(0.015625)"/>
       </defs>
       <use xlink:href="#DejaVuSans-38"/>
      </g>
     </g>
    </g>
    <g id="ytick_6">
     <g id="line2d_10">
      <g>
       <use xlink:href="#m35e28222d7" x="371.204" y="153.528" style="stroke: #000000; stroke-width: 0.8"/>
      </g>
     </g>
     <g id="text_11">
      <!-- 10 -->
      <g transform="translate(378.204 157.327219) scale(0.1 -0.1)">
       <defs>
        <path id="DejaVuSans-31" d="M 794 531 
L 1825 531 
L 1825 4091 
L 703 3866 
L 703 4441 
L 1819 4666 
L 2450 4666 
L 2450 531 
L 3481 531 
L 3481 0 
L 794 0 
L 794 531 
z
" transform="scale(0.015625)"/>
       </defs>
       <use xlink:href="#DejaVuSans-31"/>
       <use xlink:href="#DejaVuSans-30" x="63.623047"/>
      </g>
     </g>
    </g>
    <g id="ytick_7">
     <g id="line2d_11">
      <g>
       <use xlink:href="#m35e28222d7" x="371.204" y="107.272" style="stroke: #000000; stroke-width: 0.8"/>
      </g>
     </g>
     <g id="text_12">
      <!-- 12 -->
      <g transform="translate(378.204 111.071219) scale(0.1 -0.1)">
       <defs>
        <path id="DejaVuSans-32" d="M 1228 531 
L 3431 531 
L 3431 0 
L 469 0 
L 469 531 
Q 828 903 1448 1529 
Q 2069 2156 2228 2338 
Q 2531 2678 2651 2914 
Q 2772 3150 2772 3378 
Q 2772 3750 2511 3984 
Q 2250 4219 1831 4219 
Q 1534 4219 1204 4116 
Q 875 4013 500 3803 
L 500 4441 
Q 881 4594 1212 4672 
Q 1544 4750 1819 4750 
Q 2544 4750 2975 4387 
Q 3406 4025 3406 3419 
Q 3406 3131 3298 2873 
Q 3191 2616 2906 2266 
Q 2828 2175 2409 1742 
Q 1991 1309 1228 531 
z
" transform="scale(0.015625)"/>
       </defs>
       <use xlink:href="#DejaVuSans-31"/>
       <use xlink:href="#DejaVuSans-32" x="63.623047"/>
      </g>
     </g>
    </g>
    <g id="ytick_8">
     <g id="line2d_12">
      <g>
       <use xlink:href="#m35e28222d7" x="371.204" y="61.016" style="stroke: #000000; stroke-width: 0.8"/>
      </g>
     </g>
     <g id="text_13">
      <!-- 14 -->
      <g transform="translate(378.204 64.815219) scale(0.1 -0.1)">
       <defs>
        <path id="DejaVuSans-34" d="M 2419 4116 
L 825 1625 
L 2419 1625 
L 2419 4116 
z
M 2253 4666 
L 3047 4666 
L 3047 1625 
L 3713 1625 
L 3713 1100 
L 3047 1100 
L 3047 0 
L 2419 0 
L 2419 1100 
L 313 1100 
L 313 1709 
L 2253 4666 
z
" transform="scale(0.015625)"/>
       </defs>
       <use xlink:href="#DejaVuSans-31"/>
       <use xlink:href="#DejaVuSans-34" x="63.623047"/>
      </g>
     </g>
    </g>
    <g id="ytick_9">
     <g id="line2d_13">
      <g>
       <use xlink:href="#m35e28222d7" x="371.204" y="14.76" style="stroke: #000000; stroke-width: 0.8"/>
      </g>
     </g>
     <g id="text_14">
      <!-- 16 -->
      <g transform="translate(378.204 18.559219) scale(0.1 -0.1)">
       <use xlink:href="#DejaVuSans-31"/>
       <use xlink:href="#DejaVuSans-36" x="63.623047"/>
      </g>
     </g>
    </g>
    <g id="text_15">
     <!-- Posterior standard deviation -->
     <g transform="translate(402.527438 201.090625) rotate(-90) scale(0.1 -0.1)">
      <defs>
       <path id="DejaVuSans-50" d="M 1259 4147 
L 1259 2394 
L 2053 2394 
Q 2494 2394 2734 2622 
Q 2975 2850 2975 3272 
Q 2975 3691 2734 3919 
Q 2494 4147 2053 4147 
L 1259 4147 
z
M 628 4666 
L 2053 4666 
Q 2838 4666 3239 4311 
Q 3641 3956 3641 3272 
Q 3641 2581 3239 2228 
Q 2838 1875 2053 1875 
L 1259 1875 
L 1259 0 
L 628 0 
L 628 4666 
z
" transform="scale(0.015625)"/>
       <path id="DejaVuSans-6f" d="M 1959 3097 
Q 1497 3097 1228 2736 
Q 959 2375 959 1747 
Q 959 1119 1226 758 
Q 1494 397 1959 397 
Q 2419 397 2687 759 
Q 2956 1122 2956 1747 
Q 2956 2369 2687 2733 
Q 2419 3097 1959 3097 
z
M 1959 3584 
Q 2709 3584 3137 3096 
Q 3566 2609 3566 1747 
Q 3566 888 3137 398 
Q 2709 -91 1959 -91 
Q 1206 -91 779 398 
Q 353 888 353 1747 
Q 353 2609 779 3096 
Q 1206 3584 1959 3584 
z
" transform="scale(0.015625)"/>
       <path id="DejaVuSans-73" d="M 2834 3397 
L 2834 2853 
Q 2591 2978 2328 3040 
Q 2066 3103 1784 3103 
Q 1356 3103 1142 2972 
Q 928 2841 928 2578 
Q 928 2378 1081 2264 
Q 1234 2150 1697 2047 
L 1894 2003 
Q 2506 1872 2764 1633 
Q 3022 1394 3022 966 
Q 3022 478 2636 193 
Q 2250 -91 1575 -91 
Q 1294 -91 989 -36 
Q 684 19 347 128 
L 347 722 
Q 666 556 975 473 
Q 1284 391 1588 391 
Q 1994 391 2212 530 
Q 2431 669 2431 922 
Q 2431 1156 2273 1281 
Q 2116 1406 1581 1522 
L 1381 1569 
Q 847 1681 609 1914 
Q 372 2147 372 2553 
Q 372 3047 722 3315 
Q 1072 3584 1716 3584 
Q 2034 3584 2315 3537 
Q 2597 3491 2834 3397 
z
" transform="scale(0.015625)"/>
       <path id="DejaVuSans-74" d="M 1172 4494 
L 1172 3500 
L 2356 3500 
L 2356 3053 
L 1172 3053 
L 1172 1153 
Q 1172 725 1289 603 
Q 1406 481 1766 481 
L 2356 481 
L 2356 0 
L 1766 0 
Q 1100 0 847 248 
Q 594 497 594 1153 
L 594 3053 
L 172 3053 
L 172 3500 
L 594 3500 
L 594 4494 
L 1172 4494 
z
" transform="scale(0.015625)"/>
       <path id="DejaVuSans-65" d="M 3597 1894 
L 3597 1613 
L 953 1613 
Q 991 1019 1311 708 
Q 1631 397 2203 397 
Q 2534 397 2845 478 
Q 3156 559 3463 722 
L 3463 178 
Q 3153 47 2828 -22 
Q 2503 -91 2169 -91 
Q 1331 -91 842 396 
Q 353 884 353 1716 
Q 353 2575 817 3079 
Q 1281 3584 2069 3584 
Q 2775 3584 3186 3129 
Q 3597 2675 3597 1894 
z
M 3022 2063 
Q 3016 2534 2758 2815 
Q 2500 3097 2075 3097 
Q 1594 3097 1305 2825 
Q 1016 2553 972 2059 
L 3022 2063 
z
" transform="scale(0.015625)"/>
       <path id="DejaVuSans-72" d="M 2631 2963 
Q 2534 3019 2420 3045 
Q 2306 3072 2169 3072 
Q 1681 3072 1420 2755 
Q 1159 2438 1159 1844 
L 1159 0 
L 581 0 
L 581 3500 
L 1159 3500 
L 1159 2956 
Q 1341 3275 1631 3429 
Q 1922 3584 2338 3584 
Q 2397 3584 2469 3576 
Q 2541 3569 2628 3553 
L 2631 2963 
z
" transform="scale(0.015625)"/>
       <path id="DejaVuSans-69" d="M 603 3500 
L 1178 3500 
L 1178 0 
L 603 0 
L 603 3500 
z
M 603 4863 
L 1178 4863 
L 1178 4134 
L 603 4134 
L 603 4863 
z
" transform="scale(0.015625)"/>
       <path id="DejaVuSans-20" transform="scale(0.015625)"/>
       <path id="DejaVuSans-61" d="M 2194 1759 
Q 1497 1759 1228 1600 
Q 959 1441 959 1056 
Q 959 750 1161 570 
Q 1363 391 1709 391 
Q 2188 391 2477 730 
Q 2766 1069 2766 1631 
L 2766 1759 
L 2194 1759 
z
M 3341 1997 
L 3341 0 
L 2766 0 
L 2766 531 
Q 2569 213 2275 61 
Q 1981 -91 1556 -91 
Q 1019 -91 701 211 
Q 384 513 384 1019 
Q 384 1609 779 1909 
Q 1175 2209 1959 2209 
L 2766 2209 
L 2766 2266 
Q 2766 2663 2505 2880 
Q 2244 3097 1772 3097 
Q 1472 3097 1187 3025 
Q 903 2953 641 2809 
L 641 3341 
Q 956 3463 1253 3523 
Q 1550 3584 1831 3584 
Q 2591 3584 2966 3190 
Q 3341 2797 3341 1997 
z
" transform="scale(0.015625)"/>
       <path id="DejaVuSans-6e" d="M 3513 2113 
L 3513 0 
L 2938 0 
L 2938 2094 
Q 2938 2591 2744 2837 
Q 2550 3084 2163 3084 
Q 1697 3084 1428 2787 
Q 1159 2491 1159 1978 
L 1159 0 
L 581 0 
L 581 3500 
L 1159 3500 
L 1159 2956 
Q 1366 3272 1645 3428 
Q 1925 3584 2291 3584 
Q 2894 3584 3203 3211 
Q 3513 2838 3513 2113 
z
" transform="scale(0.015625)"/>
       <path id="DejaVuSans-64" d="M 2906 2969 
L 2906 4863 
L 3481 4863 
L 3481 0 
L 2906 0 
L 2906 525 
Q 2725 213 2448 61 
Q 2172 -91 1784 -91 
Q 1150 -91 751 415 
Q 353 922 353 1747 
Q 353 2572 751 3078 
Q 1150 3584 1784 3584 
Q 2172 3584 2448 3432 
Q 2725 3281 2906 2969 
z
M 947 1747 
Q 947 1113 1208 752 
Q 1469 391 1925 391 
Q 2381 391 2643 752 
Q 2906 1113 2906 1747 
Q 2906 2381 2643 2742 
Q 2381 3103 1925 3103 
Q 1469 3103 1208 2742 
Q 947 2381 947 1747 
z
" transform="scale(0.015625)"/>
       <path id="DejaVuSans-76" d="M 191 3500 
L 800 3500 
L 1894 563 
L 2988 3500 
L 3597 3500 
L 2284 0 
L 1503 0 
L 191 3500 
z
" transform="scale(0.015625)"/>
      </defs>
      <use xlink:href="#DejaVuSans-50"/>
      <use xlink:href="#DejaVuSans-6f" x="56.677734"/>
      <use xlink:href="#DejaVuSans-73" x="117.859375"/>
      <use xlink:href="#DejaVuSans-74" x="169.958984"/>
      <use xlink:href="#DejaVuSans-65" x="209.167969"/>
      <use xlink:href="#DejaVuSans-72" x="270.691406"/>
      <use xlink:href="#DejaVuSans-69" x="311.804688"/>
      <use xlink:href="#DejaVuSans-6f" x="339.587891"/>
      <use xlink:href="#DejaVuSans-72" x="400.769531"/>
      <use xlink:href="#DejaVuSans-20" x="441.882812"/>
      <use xlink:href="#DejaVuSans-73" x="473.669922"/>
      <use xlink:href="#DejaVuSans-74" x="525.769531"/>
      <use xlink:href="#DejaVuSans-61" x="564.978516"/>
      <use xlink:href="#DejaVuSans-6e" x="626.257812"/>
      <use xlink:href="#DejaVuSans-64" x="689.636719"/>
      <use xlink:href="#DejaVuSans-61" x="753.113281"/>
      <use xlink:href="#DejaVuSans-72" x="814.392578"/>
      <use xlink:href="#DejaVuSans-64" x="853.755859"/>
      <use xlink:href="#DejaVuSans-20" x="917.232422"/>
      <use xlink:href="#DejaVuSans-64" x="949.019531"/>
      <use xlink:href="#DejaVuSans-65" x="1012.496094"/>
      <use xlink:href="#DejaVuSans-76" x="1074.019531"/>
      <use xlink:href="#DejaVuSans-69" x="1133.199219"/>
      <use xlink:href="#DejaVuSans-61" x="1160.982422"/>
      <use xlink:href="#DejaVuSans-74" x="1222.261719"/>
      <use xlink:href="#DejaVuSans-69" x="1261.470703"/>
      <use xlink:href="#DejaVuSans-6f" x="1289.253906"/>
      <use xlink:href="#DejaVuSans-6e" x="1350.435547"/>
     </g>
    </g>
   </g>
   <g id="LineCollection_1"/>
   <g id="patch_8">
    <path d="M 359.64 246.04 
L 365.422 246.04 
L 371.204 246.04 
L 371.204 14.76 
L 365.422 14.76 
L 359.64 14.76 
L 359.64 246.04 
z
" style="fill: none; stroke: #000000; stroke-width: 0.8; stroke-linejoin: miter; stroke-linecap: square"/>
   </g>
  </g>
 </g>
 <defs>
  <clipPath id="p2a20876ffd">
   <rect x="107.84" y="14.76" width="231.28" height="231.28"/>
  </clipPath>
  <clipPath id="p25899a9863">
   <rect x="359.64" y="14.76" width="11.564" height="231.28"/>
  </clipPath>
 </defs>
</svg>
